<?xml version="1.0" standalone="no"?>
<!DOCTYPE svg PUBLIC "-//W3C//DTD SVG 20010904//EN"
 "http://www.w3.org/TR/2001/REC-SVG-20010904/DTD/svg10.dtd">
<svg version="1.0" xmlns="http://www.w3.org/2000/svg"
 width="584.000000pt" height="460.000000pt" viewBox="0 0 584.000000 460.000000"
 preserveAspectRatio="xMidYMid meet">

<g transform="translate(0.000000,460.000000) scale(0.100000,-0.100000)"
fill="#000000" stroke="none">
<path d="M0 4590 c0 -5 5 -10 12 -10 9 0 9 -3 0 -12 -17 -17 -15 -48 3 -48 8
0 15 -4 15 -10 0 -5 9 -10 20 -10 12 0 20 -7 20 -16 0 -12 -3 -14 -12 -6 -8 6
-22 6 -35 1 l-22 -8 0 -356 c0 -276 2 -356 12 -352 7 2 12 16 12 31 1 28 27
56 51 56 14 0 24 22 24 51 0 18 5 20 44 15 48 -5 73 11 62 39 -3 9 -2 13 4 10
6 -3 10 1 10 9 0 9 6 16 14 16 8 0 21 8 28 18 16 21 59 23 74 3 7 -8 18 -11
29 -8 12 5 16 3 12 -6 -3 -7 3 -19 13 -25 11 -7 17 -20 15 -32 -2 -11 0 -20 5
-20 22 0 40 14 40 31 0 11 7 19 16 19 8 0 12 5 9 10 -4 6 -16 8 -27 4 -12 -4
-18 -2 -15 4 4 5 -4 8 -18 6 -14 -1 -23 2 -20 6 3 5 -1 14 -8 21 -10 10 -11
26 -6 60 9 57 33 107 43 90 13 -21 41 -11 87 32 48 45 52 67 16 86 -12 6 -15
10 -5 7 13 -4 15 0 8 22 -9 32 10 55 36 45 14 -5 16 -3 11 11 -4 10 -7 20 -7
22 0 2 -12 4 -27 5 -16 0 -36 4 -46 8 -17 6 -17 8 -4 19 12 11 22 10 52 -3 61
-25 69 -21 60 28 -4 23 -7 54 -6 70 0 15 -4 27 -10 27 -6 0 -8 -4 -5 -9 3 -5
-1 -14 -8 -20 -15 -13 -32 1 -22 18 3 5 -17 8 -44 8 -27 -1 -50 -6 -50 -10 0
-5 4 -5 10 -2 6 3 10 4 10 2 0 -5 -68 -47 -76 -47 -3 0 0 9 6 19 14 27 13 31
-10 31 -11 0 -20 -7 -20 -16 0 -10 -6 -14 -17 -10 -10 2 -29 8 -42 11 -19 6
-23 4 -18 -8 4 -11 2 -14 -7 -11 -25 10 -28 -17 -5 -42 12 -13 20 -24 16 -24
-4 0 -2 -12 4 -27 7 -20 6 -28 -3 -35 -10 -6 -8 -8 5 -8 9 0 17 5 17 10 0 6 5
10 10 10 14 0 68 -50 55 -50 -6 0 -19 -7 -29 -15 -14 -11 -16 -18 -8 -28 22
-26 -4 -41 -77 -45 -54 -3 -68 -7 -64 -18 3 -8 0 -14 -5 -14 -6 0 -12 7 -14
16 -4 22 -71 44 -94 31 -14 -8 -16 -7 -10 8 4 11 2 22 -6 26 -9 6 -9 11 0 22
11 12 18 13 50 1 41 -14 72 -18 111 -16 17 2 21 6 17 18 -6 15 -4 15 18 0 29
-18 46 -21 46 -5 0 5 -4 8 -9 5 -5 -3 -11 4 -15 17 -5 18 -8 20 -16 7 -5 -8
-10 -12 -11 -7 -1 4 -2 10 -3 15 -3 17 -18 32 -27 27 -5 -4 -9 -1 -9 4 0 6 -3
10 -7 9 -17 -5 -72 28 -77 45 -2 11 -9 16 -15 12 -6 -3 -11 -1 -11 5 0 6 -4 8
-10 5 -5 -3 -10 -1 -10 4 0 6 -6 11 -14 11 -9 0 -12 7 -9 23 3 13 1 17 -4 11
-5 -7 -16 -8 -28 -4 -18 7 -18 8 -3 15 13 5 16 14 12 31 -4 15 -2 24 6 24 6 0
8 5 5 10 -3 6 -22 10 -41 10 -19 0 -34 -4 -34 -10z m505 -220 c-3 -5 -11 -10
-16 -10 -6 0 -7 5 -4 10 3 6 11 10 16 10 6 0 7 -4 4 -10z m-385 -140 c0 -5 -4
-10 -10 -10 -5 0 -10 5 -10 10 0 6 5 10 10 10 6 0 10 -4 10 -10z"/>
<path d="M366 4592 c-3 -5 12 -9 34 -10 21 -1 42 3 45 8 4 6 -10 10 -34 10
-22 0 -42 -4 -45 -8z"/>
<path d="M1237 4575 c21 -28 29 -31 37 -10 3 8 10 15 16 15 6 0 8 -4 5 -10 -7
-11 23 -2 42 13 7 5 19 7 26 4 8 -3 20 -1 28 4 9 5 -21 9 -79 9 l-93 0 18 -25z"/>
<path d="M1426 4589 c3 -6 16 -9 28 -7 26 5 46 -13 46 -42 0 -20 5 -21 63 -19
69 2 152 -6 181 -17 14 -5 17 -4 12 4 -4 7 -4 18 1 25 17 27 13 47 -10 48 -12
0 -40 2 -61 4 -22 3 -45 0 -52 -6 -8 -6 -13 -5 -18 6 -4 12 -25 15 -101 15
-67 0 -94 -3 -89 -11z"/>
<path d="M1846 4588 l-39 -11 24 -18 c13 -10 21 -21 17 -25 -4 -4 -14 -2 -22
5 -11 9 -14 9 -13 -1 1 -36 -5 -46 -30 -51 -16 -3 -32 -2 -38 3 -15 12 -105 0
-105 -15 0 -21 -34 -43 -63 -40 -15 2 -25 0 -22 -5 3 -4 -4 -10 -15 -13 -11
-3 -20 -14 -20 -24 0 -35 -19 -44 -59 -27 -22 9 -37 11 -39 5 -13 -38 -52 -76
-92 -90 -59 -21 -70 -29 -70 -51 0 -10 -7 -20 -15 -24 -19 -7 -20 -26 -1 -26
7 0 33 -22 57 -50 24 -27 58 -57 76 -65 18 -9 33 -21 33 -27 0 -6 3 -8 6 -5 4
3 15 2 25 -3 21 -12 49 -3 49 16 0 8 7 14 15 14 10 0 14 9 13 25 -2 21 -7 24
-32 21 -22 -3 -37 3 -53 20 -12 13 -32 24 -45 24 -13 0 -41 11 -63 24 -47 29
-34 40 34 32 36 -4 46 -1 76 26 19 16 32 34 29 39 -3 5 2 12 11 15 9 4 24 23
35 43 30 60 43 66 74 34 23 -23 26 -33 24 -81 -3 -55 14 -83 26 -45 3 10 19
25 35 34 35 20 51 9 51 -33 0 -15 5 -28 11 -28 5 0 7 -5 3 -12 -4 -6 -3 -8 3
-5 5 3 26 7 46 9 21 1 37 6 37 10 0 4 6 8 14 8 8 0 16 6 18 12 3 9 32 13 91
15 47 0 91 4 97 8 7 4 9 -3 5 -22 -5 -24 -4 -25 4 -7 10 22 45 26 82 10 10 -4
24 -6 32 -4 9 2 16 -1 16 -7 1 -5 -22 -11 -51 -13 -29 -2 -56 -9 -60 -15 -6
-9 -12 -9 -27 0 -24 15 -31 8 -31 -32 0 -42 16 -56 48 -44 14 5 32 9 41 8 34
-5 103 14 155 42 46 25 56 36 68 74 16 48 9 65 -26 65 -16 0 -18 -2 -7 -9 9
-6 10 -11 2 -15 -6 -4 -11 -2 -11 3 0 6 -4 11 -9 11 -15 0 -42 -31 -36 -40 3
-5 0 -12 -6 -15 -7 -5 -9 1 -7 16 4 28 76 69 120 69 47 0 97 -26 109 -57 15
-39 6 -201 -13 -236 -19 -34 -59 -73 -71 -69 -5 1 -11 -6 -14 -17 -6 -23 -33
-34 -77 -33 -16 0 -35 -6 -43 -14 -8 -8 -24 -14 -36 -14 -12 0 -33 -3 -46 -7
-21 -5 -23 -3 -17 12 5 15 4 16 -8 6 -11 -10 -17 -7 -30 11 -12 17 -18 20 -28
10 -9 -9 -8 -12 5 -12 9 0 17 -6 17 -13 0 -28 -13 -25 -46 8 -30 31 -64 49
-50 26 3 -4 -5 -6 -19 -4 -13 3 -34 -2 -47 -11 -27 -19 -42 -21 -32 -3 6 10 4
10 -7 0 -7 -7 -21 -13 -31 -13 -10 0 -18 -5 -18 -11 0 -5 -4 -7 -10 -4 -5 3
-10 1 -10 -5 0 -6 -4 -9 -9 -6 -5 3 -31 1 -57 -5 -27 -6 -61 -11 -75 -12 -14
-1 -33 -8 -41 -15 -9 -7 -47 -12 -97 -13 -69 -1 -81 -3 -77 -16 9 -22 -4 -63
-20 -63 -17 0 -18 22 -2 38 8 8 8 15 -3 28 -9 12 -10 15 -1 10 8 -5 12 0 12
17 0 18 -6 26 -25 29 -16 3 -25 1 -25 -7 0 -7 -7 -16 -17 -19 -15 -6 -15 -8 0
-19 14 -11 13 -14 -8 -30 l-25 -18 6 31 c6 30 -9 43 -19 18 -3 -8 -6 -6 -6 5
-1 9 4 17 10 17 6 0 9 6 6 13 -2 6 -15 12 -28 12 -16 0 -23 5 -22 15 2 9 -12
24 -30 34 l-32 19 20 -24 c11 -14 1 -5 -22 18 -24 24 -43 47 -43 51 -1 13 -51
44 -65 39 -21 -9 -27 5 -10 23 14 15 14 18 0 30 -8 7 -15 23 -15 37 0 13 -9
33 -20 45 -11 12 -20 30 -20 40 0 24 -12 23 -28 -3 -9 -13 -19 -18 -32 -14
-20 6 -74 -4 -66 -13 10 -9 -16 -32 -35 -32 -13 0 -17 5 -13 18 4 10 3 13 -3
6 -13 -18 -50 -26 -59 -13 -5 8 -3 10 7 4 8 -5 7 0 -4 12 -9 11 -17 24 -17 30
0 5 -7 10 -16 10 -11 0 -14 -7 -11 -24 2 -13 0 -26 -4 -29 -5 -3 -9 1 -9 8 0
7 -4 19 -9 27 -8 12 -15 11 -43 -6 -45 -27 -76 -33 -104 -23 -13 5 -24 6 -24
2 0 -16 58 -41 98 -43 29 -2 44 -8 47 -20 3 -9 22 -31 42 -49 36 -33 36 -33
52 -12 9 12 30 22 51 24 19 2 35 8 35 14 0 6 19 32 43 57 23 26 42 42 42 38 0
-5 -19 -28 -42 -50 -24 -22 -37 -41 -29 -41 8 0 34 21 58 46 25 25 46 44 47
42 2 -1 7 -13 10 -25 6 -18 3 -23 -12 -23 -23 0 -46 -25 -37 -40 4 -6 3 -10
-2 -9 -4 1 -19 1 -32 0 -24 -1 -24 -1 -5 -16 19 -14 18 -14 -3 -15 -13 0 -23
-4 -23 -10 0 -5 -6 -10 -14 -10 -7 0 -19 -14 -26 -30 -7 -17 -21 -35 -32 -41
-28 -15 -5 -39 36 -38 110 2 143 -7 201 -51 31 -24 65 -60 75 -80 19 -37 50
-70 50 -53 0 5 -6 15 -12 21 -17 17 5 32 35 24 14 -3 18 -1 13 6 -4 7 -3 12 3
12 5 0 11 -6 14 -12 2 -8 14 2 26 22 13 19 21 28 19 20 -3 -8 6 -24 20 -34 24
-19 25 -19 38 -1 8 10 14 14 14 7 0 -6 18 -30 39 -53 l40 -41 28 20 c15 11 30
20 33 21 30 4 70 26 75 41 3 9 15 26 26 36 20 18 21 18 34 1 6 -9 15 -17 18
-17 12 0 55 -49 46 -52 -5 -2 0 -9 11 -16 17 -10 20 -10 20 3 0 19 29 19 54 0
16 -12 22 -12 45 3 14 9 23 12 19 8 -3 -4 0 -19 8 -34 10 -20 11 -29 1 -41 -9
-11 -9 -13 0 -8 6 4 14 3 18 -3 3 -5 1 -10 -4 -10 -6 0 -11 -5 -11 -12 0 -25
24 12 26 40 2 41 3 42 25 42 18 0 20 -4 15 -25 -4 -14 -2 -25 4 -25 5 0 9 -5
7 -11 -1 -6 3 -13 9 -15 6 -3 10 10 8 35 -1 22 4 48 12 58 12 16 14 14 15 -22
4 -70 4 -74 12 -81 4 -4 7 -11 7 -15 0 -13 -87 -41 -108 -35 -11 4 -23 2 -27
-4 -3 -6 -10 -8 -15 -5 -5 3 -20 -1 -34 -10 -16 -11 -26 -13 -31 -6 -3 6 -17
11 -31 11 -14 0 -22 -4 -19 -10 3 -5 1 -10 -4 -10 -19 0 -12 28 8 35 10 3 23
5 27 4 14 -2 54 13 54 20 0 3 -4 12 -9 20 -8 12 -12 12 -25 2 -9 -8 -16 -10
-16 -7 0 4 -15 -4 -33 -18 -19 -14 -37 -23 -40 -19 -4 3 -21 -9 -37 -27 -28
-32 -33 -33 -60 -23 -17 6 -32 7 -35 3 -3 -5 4 -12 16 -15 19 -6 17 -9 -17
-24 -48 -22 -241 -29 -276 -10 -16 9 -23 9 -26 0 -2 -6 -10 -11 -18 -11 -8 0
-14 -5 -14 -11 0 -6 -7 -8 -16 -5 -17 7 -43 -13 -37 -30 2 -6 -6 -22 -17 -36
-15 -20 -31 -27 -65 -30 -40 -3 -45 -1 -45 17 0 15 -7 21 -30 22 -18 1 -28 -2
-25 -7 4 -6 2 -10 -3 -10 -5 0 -15 11 -22 25 -9 18 -17 22 -29 16 -9 -5 -28
-8 -42 -6 -22 2 -26 0 -22 -16 3 -10 9 -16 14 -13 18 11 49 -17 49 -45 0 -32
20 -54 42 -46 12 5 14 0 11 -19 -3 -16 -12 -26 -22 -26 -9 0 -25 -13 -34 -30
-10 -17 -13 -30 -8 -30 27 0 7 -20 -26 -26 -21 -4 -40 -11 -43 -15 -11 -17
-50 4 -56 30 -12 53 -16 62 -27 58 -7 -2 -18 -16 -25 -30 -7 -15 -18 -27 -23
-27 -6 0 -7 5 -4 10 3 6 2 10 -4 10 -20 0 -24 -23 -6 -37 21 -15 49 -18 41 -4
-7 10 20 9 30 -1 3 -4 6 -23 6 -42 0 -20 4 -36 9 -36 5 0 9 4 9 9 0 12 74 20
81 8 4 -6 13 -6 24 0 12 7 14 13 6 17 -6 4 -11 2 -11 -4 0 -6 -5 -8 -10 -5
-17 11 0 25 29 25 15 0 42 5 59 11 16 6 47 9 69 7 l38 -4 -35 -18 c-110 -56
-135 -73 -138 -94 -2 -12 -8 -22 -13 -22 -5 0 -9 -16 -9 -35 0 -22 -6 -38 -15
-41 -8 -4 -15 -12 -15 -20 0 -8 -5 -14 -11 -14 -5 0 -8 -4 -5 -9 3 -4 -12 -5
-34 -1 -44 8 -47 6 -25 -17 8 -8 13 -19 10 -24 -8 -11 -67 49 -63 63 2 6 29
24 58 40 56 30 74 48 47 48 -8 0 -33 -15 -55 -33 -22 -19 -55 -40 -73 -47 -47
-19 -47 -19 -19 -42 18 -14 20 -18 6 -14 -14 5 -17 2 -12 -10 3 -8 6 -18 6
-21 0 -3 7 0 16 8 14 11 15 10 12 -7 -2 -13 3 -20 19 -22 23 -3 41 -32 20 -33
-7 0 -3 -4 8 -9 30 -13 31 -12 29 20 -1 16 2 27 7 24 5 -3 9 -1 9 3 0 5 9 9
20 9 11 0 20 -4 20 -9 0 -5 8 -6 18 -3 13 4 17 0 18 -19 2 -21 -1 -23 -12 -15
-16 14 -34 5 -34 -18 0 -10 -7 -27 -15 -39 -12 -17 -22 -20 -53 -16 -33 4 -39
2 -49 -19 -8 -18 -7 -30 3 -51 12 -21 12 -27 2 -28 -7 -1 1 -5 17 -8 21 -5 34
-3 42 6 6 8 15 15 20 16 4 1 7 7 5 12 -1 6 4 2 11 -7 10 -13 16 -15 25 -6 7 7
12 18 12 25 0 7 4 13 9 13 6 0 6 12 0 32 -5 18 -9 42 -9 53 1 18 2 18 11 3 5
-9 16 -15 23 -12 8 3 17 0 21 -5 10 -17 25 -3 25 22 0 17 2 19 9 7 6 -8 7 -18
5 -22 -3 -4 2 -8 11 -8 12 0 15 -5 11 -16 -7 -19 14 -42 33 -36 8 3 25 17 37
31 13 14 24 20 24 14 0 -7 -5 -13 -11 -13 -8 0 -8 -4 1 -15 10 -12 15 -12 35
1 26 17 39 65 22 76 -7 4 -18 0 -24 -9 -7 -9 -16 -14 -19 -10 -4 4 -1 13 6 22
7 9 10 18 7 22 -4 3 -9 -1 -13 -10 -5 -13 -10 -14 -25 -6 -11 5 -17 14 -14 19
3 6 -1 7 -9 4 -9 -3 -16 -15 -16 -25 0 -13 -6 -18 -20 -16 -11 2 -23 7 -27 11
-5 4 -3 7 2 6 21 -5 29 1 15 10 -13 8 -13 10 1 10 9 0 24 9 34 20 10 11 15 20
11 20 -4 0 -1 6 6 14 7 8 18 11 23 8 6 -3 6 -1 2 4 -5 5 -13 10 -18 10 -5 1
-10 2 -11 3 -2 1 -18 4 -37 7 -29 4 -32 2 -21 -11 7 -9 19 -14 27 -11 7 3 13
0 13 -5 0 -6 -9 -9 -20 -6 -10 3 -21 0 -23 -7 -3 -6 -13 -1 -26 13 -17 20 -21
21 -21 7 0 -22 -43 -18 -48 4 -4 21 47 39 96 33 43 -5 60 8 37 27 -23 19 -18
28 28 49 54 25 64 37 69 81 4 43 18 45 38 5 10 -19 23 -30 38 -31 12 0 22 3
22 8 0 4 7 8 15 8 8 0 15 3 15 6 0 8 -27 34 -37 34 -15 0 -29 35 -29 70 1 31
6 37 46 56 24 11 52 19 62 16 10 -2 18 1 18 7 0 6 -3 10 -7 10 -19 -3 -33 2
-33 11 0 5 3 9 8 9 40 -7 52 2 52 36 0 40 11 44 39 16 13 -13 21 -16 24 -8 3
9 7 9 17 0 14 -13 5 -33 -16 -33 -8 0 -14 -9 -14 -19 0 -17 -4 -18 -31 -11
-22 7 -29 6 -26 -3 6 -18 123 -12 143 7 11 12 12 16 2 16 -7 0 -2 10 12 21 14
11 19 18 13 14 -8 -3 -13 0 -13 8 0 14 20 27 41 27 5 0 9 -6 9 -13 0 -27 27
-49 64 -52 21 -2 40 -6 43 -9 9 -9 -49 -29 -83 -29 -18 -1 -30 -6 -28 -11 2
-6 -11 -28 -29 -49 -25 -29 -35 -35 -44 -26 -10 10 -14 9 -19 -4 -6 -18 13
-50 25 -42 4 2 15 -5 24 -16 12 -13 30 -19 61 -19 39 0 47 4 63 30 9 17 25 33
35 36 10 3 18 11 18 17 1 38 91 91 165 99 19 2 34 11 41 25 6 13 18 31 26 40
8 10 18 26 21 36 4 9 11 17 17 17 6 0 9 4 5 9 -3 6 3 14 12 20 20 11 20 16 0
35 -19 19 -54 29 -62 16 -11 -18 -27 -11 -22 11 4 16 3 18 -8 9 -8 -7 -19 -9
-25 -5 -6 4 -23 -5 -37 -19 -27 -27 -50 -35 -37 -13 4 6 -2 4 -13 -5 -11 -10
-27 -18 -36 -18 -9 0 -19 -5 -23 -12 -5 -8 2 -9 23 -5 86 17 88 17 48 2 -30
-12 -68 -15 -147 -13 -103 3 -117 6 -101 22 18 18 10 36 -15 36 -42 0 -7 17
52 25 27 4 64 13 81 21 18 7 34 11 36 9 19 -19 199 -6 199 15 0 3 22 6 50 7
40 0 51 -3 55 -18 4 -11 11 -17 16 -13 6 3 24 0 40 -7 21 -8 26 -14 18 -20
-10 -6 -9 -17 4 -51 25 -68 29 -104 16 -126 -15 -24 -41 -18 -31 6 5 15 4 15
-12 -1 -10 -9 -21 -15 -24 -13 -4 2 -16 -5 -26 -15 -11 -11 -15 -19 -10 -20 5
0 17 -2 26 -4 11 -2 15 2 11 11 -3 8 1 14 11 14 9 0 16 -4 16 -9 0 -14 -27
-32 -44 -29 -15 3 -16 2 -16 -33 0 -18 3 -19 15 -9 17 14 135 4 135 -12 0 -5
-3 -7 -7 -5 -5 3 -15 -2 -22 -11 -13 -14 -13 -15 7 -10 11 3 29 0 39 -8 17
-12 17 -13 1 -14 -11 0 -15 -5 -12 -15 8 -19 2 -19 -42 0 -38 16 -54 13 -54
-11 0 -8 -8 -14 -18 -14 -10 0 -28 -7 -40 -16 -13 -9 -31 -13 -45 -9 -16 5
-18 4 -8 -4 12 -7 8 -13 -20 -24 l-34 -15 40 -1 c28 -1 52 7 79 25 21 15 46
24 57 21 10 -3 19 0 19 5 0 7 16 9 43 5 36 -5 45 -3 56 14 11 19 13 20 25 4
10 -14 14 -15 23 -3 15 18 11 71 -7 93 -15 19 -5 30 38 41 24 7 46 -5 25 -13
-7 -3 -13 -11 -13 -19 0 -13 3 -13 22 0 24 17 73 21 82 7 3 -4 17 -6 31 -4 27
6 33 -2 38 -55 2 -18 9 -38 14 -43 11 -11 46 -9 41 2 -2 4 6 17 17 30 17 19
18 22 3 16 -10 -4 -18 -2 -18 3 0 20 21 20 64 0 45 -20 67 -19 98 7 11 10 18
11 23 3 3 -6 1 -9 -6 -8 -7 2 -15 -5 -17 -14 -4 -23 30 -25 48 -3 7 8 32 25
56 37 24 12 44 25 44 30 0 4 7 8 16 8 8 0 12 5 9 10 -10 16 -40 11 -55 -9 -7
-11 -18 -17 -23 -14 -6 3 -16 -2 -24 -12 -11 -16 -13 -17 -13 -2 0 10 -11 18
-32 21 -45 8 -87 3 -85 -9 3 -14 -152 -6 -177 10 -12 7 -41 16 -67 19 -26 4
-52 15 -62 26 -10 12 -23 17 -34 14 -13 -4 -15 -3 -5 4 8 5 13 12 13 16 -2 22
12 35 29 26 27 -14 57 -12 63 4 4 10 -2 16 -15 18 -20 3 -19 4 6 18 25 13 29
13 37 -3 6 -10 22 -17 41 -17 17 0 40 -8 50 -17 19 -17 27 -20 78 -29 31 -5
263 -6 308 0 22 2 35 -1 42 -13 8 -14 9 -14 10 2 0 10 7 20 15 23 8 4 12 11 8
17 -4 7 0 8 13 2 10 -4 29 -9 42 -10 26 -2 55 -25 32 -25 -8 0 2 -11 23 -26
34 -23 39 -24 53 -10 21 21 64 21 64 0 0 -11 4 -14 13 -8 23 17 211 2 223 -17
9 -15 27 -10 21 5 -8 20 12 88 24 81 5 -4 5 -14 -2 -27 -11 -20 -10 -21 34
-15 35 5 46 3 51 -9 3 -8 11 -12 17 -8 8 4 9 3 5 -4 -4 -6 6 -18 24 -27 16 -8
30 -19 30 -23 0 -13 -39 -41 -42 -31 -2 5 -31 11 -66 13 -79 3 -79 -17 1 -24
30 -3 59 -8 63 -12 7 -8 64 20 76 37 4 5 4 13 2 17 -3 4 2 5 10 2 12 -4 16 0
17 17 1 17 3 19 6 7 5 -21 24 -23 41 -6 8 8 12 9 12 1 0 -6 14 -14 30 -18 17
-4 30 -11 30 -16 0 -4 14 -12 32 -17 37 -9 50 -32 19 -32 -12 0 -21 -4 -21 -9
0 -6 -17 -9 -39 -8 -24 1 -44 -5 -55 -15 -8 -9 -30 -19 -47 -23 l-31 -7 23
-24 c19 -21 24 -22 31 -9 12 21 42 20 34 -1 -3 -9 -6 -20 -6 -25 0 -5 -12 -6
-27 -3 -24 6 -26 5 -15 -8 11 -14 67 -14 58 1 -2 3 15 6 37 7 23 1 34 -1 25
-3 -34 -8 -18 -24 17 -19 20 4 35 2 35 -4 0 -6 7 -10 15 -10 8 0 15 5 15 10 0
18 67 11 146 -15 42 -14 92 -25 112 -25 19 0 61 -14 94 -30 41 -21 74 -30 102
-30 137 4 361 -23 388 -47 10 -9 25 -12 37 -8 14 4 23 0 32 -17 7 -13 16 -26
22 -29 5 -4 11 -17 12 -30 4 -38 4 -39 21 -39 13 0 15 8 12 43 -4 35 0 47 23
74 16 18 33 51 39 73 6 22 15 38 20 35 6 -4 7 1 3 11 -5 13 -3 16 10 11 10 -4
16 -2 14 5 -1 7 9 14 23 17 21 5 25 13 28 46 4 61 -7 125 -23 125 -7 0 -16 11
-19 25 -5 21 -10 24 -25 16 -15 -9 -133 3 -149 15 -3 2 45 69 77 109 10 14
-16 105 -31 105 -6 0 -9 3 -5 6 9 10 -22 36 -36 31 -9 -4 -9 -6 1 -6 21 -2 14
-79 -13 -132 -13 -27 -20 -49 -16 -49 17 0 -2 -50 -22 -56 -12 -4 -27 -13 -35
-21 -12 -12 -17 -10 -37 13 l-23 26 5 -26 c3 -14 10 -23 16 -19 5 3 7 2 4 -4
-4 -5 -20 -10 -37 -11 -23 0 -29 3 -22 11 5 7 11 22 14 34 6 22 0 23 -92 10
-14 -2 -41 6 -60 18 -75 46 -153 88 -147 79 3 -6 -3 -15 -13 -22 -16 -10 -18
-8 -17 8 1 11 5 20 10 20 4 0 5 5 2 11 -4 5 -12 8 -18 6 -7 -2 -18 2 -25 10
-21 20 -48 16 -48 -8 0 -14 5 -19 18 -16 9 3 24 -3 33 -13 15 -16 15 -18 1
-16 -8 1 -18 5 -22 8 -3 4 -17 -5 -30 -20 -16 -19 -23 -22 -24 -12 0 9 4 20 9
25 5 6 3 24 -5 43 -12 27 -19 32 -47 32 -71 0 -100 28 -62 60 35 29 -5 72 -41
45 -11 -8 -27 -15 -36 -15 -10 0 -18 -7 -18 -15 0 -8 -6 -12 -12 -10 -7 3 -33
1 -58 -3 -34 -6 -44 -12 -42 -25 4 -26 -14 -53 -48 -67 -16 -7 -30 -18 -30
-26 0 -7 -5 -16 -12 -20 -8 -5 -9 -2 -5 9 7 18 -8 24 -18 7 -4 -6 -11 -8 -16
-4 -6 3 -25 8 -42 10 -28 4 -30 3 -12 -7 29 -17 65 -51 65 -62 0 -5 -6 -4 -14
3 -12 9 -17 8 -27 -8 -12 -19 -14 -18 -51 18 -21 21 -38 41 -38 45 0 4 8 20
17 36 14 23 15 33 6 48 -10 16 -7 23 15 43 15 13 53 40 85 58 31 19 57 38 57
42 0 4 5 8 11 8 7 0 17 6 23 14 6 8 29 24 51 36 29 16 33 20 15 17 -48 -10
-70 -16 -80 -22 -6 -3 -13 1 -16 9 -7 18 -44 22 -44 5 0 -8 -4 -8 -14 0 -10 9
-15 8 -20 -4 -3 -8 -13 -15 -21 -15 -9 0 -14 -4 -10 -9 3 -5 -4 -12 -15 -16
-16 -5 -18 -10 -10 -26 10 -17 8 -18 -15 -9 -34 13 -34 13 -27 -12 4 -17 2
-20 -11 -15 -10 4 -17 2 -17 -3 0 -5 -6 -7 -14 -4 -7 3 -16 -2 -19 -10 -7 -17
-37 -22 -37 -6 0 6 -6 10 -13 10 -15 0 -16 28 -2 50 12 18 14 60 4 60 -22 0
-63 -23 -84 -47 -19 -22 -26 -25 -36 -16 -10 10 -17 5 -36 -22 -24 -36 -53
-47 -53 -20 0 9 -9 15 -21 15 -16 0 -20 6 -19 28 4 57 2 64 -19 52 -11 -5 -22
-6 -25 -2 -7 12 6 92 15 92 5 0 9 6 9 13 0 8 9 22 20 32 11 10 17 22 14 26 -3
5 2 6 11 3 9 -4 25 2 39 15 12 12 26 18 31 14 4 -5 5 -2 1 4 -5 10 -13 9 -31
-3 -29 -19 -42 -13 -42 21 0 20 5 25 23 25 18 0 24 6 24 21 0 15 4 19 16 15 9
-3 21 -6 27 -6 7 0 4 -5 -5 -11 -11 -6 -15 -16 -11 -27 10 -26 24 -31 50 -19
24 11 29 36 13 67 -20 37 57 125 91 104 16 -9 10 -24 -10 -24 -26 0 -36 -17
-14 -23 13 -3 8 -7 -14 -12 -18 -4 -33 -11 -33 -16 0 -10 37 -22 49 -15 5 3
13 0 19 -7 6 -7 35 -12 71 -12 34 0 61 -3 61 -6 0 -4 14 -12 31 -19 26 -11 35
-11 59 3 15 9 30 14 34 10 3 -3 6 5 7 18 2 74 17 119 41 119 5 0 15 -15 23
-32 8 -18 14 -30 15 -26 0 4 19 -1 43 -11 24 -10 63 -21 87 -25 24 -3 50 -12
59 -20 9 -7 23 -11 31 -8 13 4 13 2 -1 -14 -8 -10 -15 -28 -15 -38 1 -16 9
-20 48 -21 26 -2 54 -9 62 -17 19 -19 99 -33 104 -18 5 15 22 12 22 -4 0 -9
17 -18 43 -24 23 -6 67 -17 97 -26 30 -8 79 -17 107 -19 29 -3 60 -12 69 -21
13 -14 17 -14 30 -2 17 18 19 63 2 68 -9 3 -6 15 9 39 l20 35 -32 36 c-38 41
-57 51 -110 57 -11 2 -15 5 -7 8 25 10 12 25 -17 18 -17 -3 -32 -2 -36 4 -3 6
-10 11 -15 11 -13 0 -5 -51 9 -59 6 -4 13 -17 16 -29 3 -17 -1 -22 -16 -22
-10 0 -19 -4 -19 -10 0 -5 7 -7 16 -3 15 5 33 -11 34 -29 0 -13 -20 -9 -35 6
-8 7 -36 17 -62 21 -26 4 -42 10 -35 12 24 9 12 25 -13 19 -14 -4 -31 -3 -38
1 -17 11 -88 12 -81 2 3 -5 -1 -9 -8 -8 -19 1 -55 17 -40 18 18 1 12 71 -5 71
-8 0 -16 -7 -19 -15 -4 -8 -12 -15 -20 -15 -8 0 -15 7 -15 15 -1 8 -2 20 -3
27 -1 6 7 12 17 14 23 3 23 2 30 42 5 25 2 37 -14 53 -17 17 -19 23 -8 30 11
7 10 9 -3 9 -23 0 -34 20 -17 31 12 7 10 16 -8 50 -21 38 -22 43 -6 54 11 8
13 14 4 19 -7 5 -8 13 -1 25 5 10 6 21 2 25 -3 4 -5 23 -3 42 1 19 -2 34 -8
34 -6 0 -8 7 -5 15 5 11 -1 15 -25 15 -17 0 -31 4 -31 10 0 5 7 7 16 3 12 -4
15 -2 12 8 -3 8 -13 16 -24 18 -10 2 -23 10 -27 18 -5 9 -16 11 -29 7 -14 -4
-18 -2 -14 5 4 6 0 14 -9 18 -24 9 -66 52 -64 66 5 41 -1 47 -45 47 -45 0 -56
-10 -56 -50 0 -10 -5 -22 -12 -26 -7 -5 -9 -2 -5 8 3 9 3 19 -1 23 -4 3 -7 14
-7 23 0 27 -40 27 -52 0 -6 -13 -11 -27 -12 -33 -1 -5 -11 -13 -23 -18 -15 -5
-25 -2 -38 13 -9 11 -22 20 -28 20 -6 0 -14 9 -17 21 -7 20 -12 20 -208 18
-111 -1 -206 -5 -212 -8 -17 -9 -35 -10 -35 0 0 12 -47 11 -70 -1 -13 -7 -21
-7 -25 0 -5 8 -11 7 -21 -1 -10 -8 -14 -8 -14 0 0 7 -23 11 -61 11 -55 0 -64
-3 -88 -29 -14 -17 -33 -31 -41 -33 -8 -2 -18 -7 -22 -13 -4 -5 -8 0 -8 13 0
12 -8 26 -17 29 -10 4 -22 12 -26 20 -11 18 -67 17 -67 -2 0 -8 -11 -17 -25
-21 -27 -7 -40 0 -40 19 0 7 -17 13 -37 15 -44 4 -43 5 -23 -41 13 -31 13 -36
0 -47 -12 -10 -15 -10 -15 0 0 7 -6 10 -14 7 -7 -3 -19 0 -26 6 -9 8 -11 9 -7
1 9 -16 -19 -39 -28 -23 -4 6 -2 15 5 19 9 5 9 9 1 14 -6 4 -11 4 -11 -1 -1
-4 -8 4 -16 20 -10 19 -22 27 -42 27 -16 0 -33 5 -39 11 -7 7 -17 8 -25 3 -7
-5 -26 -7 -42 -5 -27 3 -28 1 -23 -25 4 -25 4 -26 -8 -11 -7 9 -17 17 -23 17
-6 0 -9 7 -6 15 5 12 -4 15 -44 15 -45 0 -50 -2 -45 -20 4 -13 14 -20 32 -21
15 0 20 -3 11 -6 -8 -3 -17 -10 -20 -14 -3 -4 -30 -10 -61 -12 -30 -2 -61 -7
-67 -11 -7 -4 -16 -5 -21 -1 -5 3 -13 1 -16 -5 -5 -8 -14 -6 -29 3 -23 16
-112 12 -122 -4 -3 -5 -14 -9 -26 -9 -17 0 -18 2 -8 15 9 11 9 15 1 15 -7 0
-9 5 -6 10 4 6 10 8 15 5 5 -3 15 8 23 25 18 35 13 36 -57 18z m1121 -4 c-3
-3 -12 -4 -19 -1 -8 3 -5 6 6 6 11 1 17 -2 13 -5z m653 -4 c0 -5 -4 -10 -10
-10 -5 0 -10 5 -10 10 0 6 5 10 10 10 6 0 10 -4 10 -10z m-550 -25 c0 -8 5
-15 10 -15 14 0 12 -27 -5 -60 -13 -25 -18 -28 -44 -20 -25 7 -29 6 -25 -8 3
-10 -2 -5 -10 9 -15 25 -14 28 22 67 40 45 52 51 52 27z m280 -13 c-6 -2 -10
-10 -10 -18 0 -8 -4 -14 -10 -14 -14 0 -13 33 2 48 9 9 14 9 20 -1 4 -6 3 -13
-2 -15z m170 13 c0 -12 -19 -12 -23 0 -4 9 -1 12 9 8 7 -3 14 -7 14 -8z m66
-4 c0 -15 -3 -17 -13 -9 -7 6 -10 14 -7 19 9 15 20 10 20 -10z m-871 -12 c-3
-4 2 -10 11 -13 8 -3 12 -10 9 -16 -3 -5 -3 -15 1 -21 4 -8 9 -7 15 2 6 10 9
6 9 -13 0 -15 5 -30 10 -33 16 -10 12 -42 -6 -49 -22 -8 -32 0 -50 42 -24 56
-29 109 -10 109 8 0 13 -4 11 -8z m575 -10 c0 -6 -4 -7 -10 -4 -5 3 -10 11
-10 16 0 6 5 7 10 4 6 -3 10 -11 10 -16z m500 3 c0 -13 -28 -47 -34 -42 -10
10 6 50 20 50 8 0 14 -4 14 -8z m-230 -12 c-20 -13 -33 -13 -25 0 3 6 14 10
23 10 15 0 15 -2 2 -10z m180 -20 c0 -13 -5 -18 -15 -14 -12 5 -13 10 -4 20
15 19 19 18 19 -6z m-1778 -26 c-12 -8 -22 -21 -22 -29 0 -8 -7 -18 -16 -23
-9 -5 -14 -13 -12 -18 1 -5 -16 -12 -39 -15 -23 -3 -40 -2 -38 1 2 4 -7 13
-20 20 -22 12 -27 11 -45 -5 -11 -10 -20 -13 -20 -7 0 6 -3 17 -6 26 -4 10 -1
16 9 16 9 0 20 7 25 16 7 13 14 14 28 6 12 -6 27 -7 43 0 14 5 35 7 47 4 14
-4 24 -1 28 9 3 8 18 15 33 15 l27 0 -22 -16z m1463 -3 c3 -5 1 -12 -4 -15 -5
-4 -12 -2 -16 3 -3 6 -12 8 -20 4 -8 -3 -15 0 -15 6 0 13 46 15 55 2z m-875
-10 c0 -5 -7 -12 -16 -15 -24 -9 -28 -7 -14 9 14 17 30 20 30 6z m-846 -16 c7
-18 -39 -21 -50 -3 -5 8 -2 9 9 5 10 -3 17 -2 17 3 0 16 17 12 24 -5z m329
-18 c22 6 22 6 2 -14 -18 -18 -21 -18 -27 -4 -4 9 -6 23 -6 31 0 11 1 11 5 -1
3 -12 11 -15 26 -12z m547 3 c0 -5 -8 -10 -17 -10 -15 0 -16 2 -3 10 19 12 20
12 20 0z m-316 -6 c13 -5 14 -9 5 -20 -16 -20 -25 -17 -25 6 0 11 1 20 2 20 1
0 10 -3 18 -6z m207 -9 c3 2 5 -5 6 -15 2 -28 -10 -25 -24 6 -10 21 -9 23 1
15 7 -6 15 -9 17 -6z m40 6 c-7 -5 -10 -14 -7 -20 7 -11 -15 -41 -30 -41 -5 0
-3 5 4 12 7 7 12 22 12 35 0 15 6 23 18 23 13 0 14 -2 3 -9z m612 -12 c-4 -13
-9 -17 -15 -11 -11 11 -3 32 12 32 4 0 6 -9 3 -21z m-908 1 c-3 -5 -1 -10 6
-10 7 0 10 -2 7 -5 -3 -3 -13 -2 -22 1 -14 5 -15 9 -4 15 17 11 20 11 13 -1z
m979 -17 c-7 -37 -13 -41 -28 -20 -7 9 -19 17 -26 17 -10 0 -10 3 0 15 7 8 23
15 36 15 19 0 22 -4 18 -27z m-1594 -3 c0 -5 -7 -10 -15 -10 -8 0 -15 5 -15
10 0 6 7 10 15 10 8 0 15 -4 15 -10z m30 0 c0 -5 -5 -10 -11 -10 -5 0 -7 5 -4
10 3 6 8 10 11 10 2 0 4 -4 4 -10z m449 -3 c19 5 34 -10 38 -37 1 -11 -16 -19
-61 -30 -59 -14 -62 -14 -63 3 -1 11 11 24 32 34 18 9 32 21 31 27 -2 6 -1 8
1 5 2 -4 12 -5 22 -2z m294 6 c-7 -2 -19 -2 -25 0 -7 3 -2 5 12 5 14 0 19 -2
13 -5z m728 -15 c9 -17 9 -20 -4 -15 -11 4 -16 -3 -19 -27 -5 -42 6 -82 20
-78 7 1 12 -5 12 -13 0 -8 -9 -15 -21 -15 -11 0 -18 3 -15 8 2 4 -3 23 -12 42
-15 34 -16 34 -20 10 -2 -14 -9 -31 -15 -39 -10 -12 -8 -13 11 -9 13 4 22 2
21 -5 -1 -25 -15 -42 -34 -42 -14 0 -21 -8 -24 -25 -3 -24 -2 -24 16 -7 27 24
34 21 23 -9 -7 -17 -7 -31 -1 -38 6 -7 10 -27 9 -46 -2 -42 3 -62 17 -72 6 -5
5 -12 -2 -19 -10 -10 -17 -9 -32 5 -11 10 -37 20 -58 23 -21 2 -51 9 -67 15
-29 12 -122 15 -132 5 -3 -3 -1 -16 6 -29 9 -19 9 -21 -2 -8 -19 21 -87 23
-130 4 -50 -22 -128 -12 -128 17 0 10 4 19 8 19 5 0 19 9 31 19 17 15 34 19
82 16 32 -2 62 1 65 7 3 5 20 6 36 3 23 -6 29 -4 26 6 -3 8 -12 13 -22 11 -9
-2 -16 2 -16 8 0 5 4 10 9 10 4 0 8 13 7 28 -1 27 -3 28 -48 24 -27 -1 -48 1
-48 6 0 13 48 32 64 26 8 -3 24 -1 35 6 15 7 27 8 39 1 9 -6 11 -11 5 -11 -7
0 -13 -6 -13 -13 0 -18 36 -19 50 -2 10 12 14 12 27 0 19 -20 26 -19 47 4 17
19 16 20 -25 42 -38 19 -59 21 -181 21 -213 1 -162 22 87 37 147 9 200 25 241
75 22 25 39 38 61 45 1 1 7 -9 14 -21z m-1281 2 c0 -5 -5 -10 -11 -10 -5 0 -7
5 -4 10 3 6 8 10 11 10 2 0 4 -4 4 -10z m1045 -10 c18 -20 18 -21 -1 -35 -25
-19 -49 -19 -68 1 -9 8 -16 12 -16 7 0 -4 -4 -2 -9 6 -24 38 61 57 94 21z
m550 10 c-3 -5 -11 -10 -16 -10 -6 0 -7 5 -4 10 3 6 11 10 16 10 6 0 7 -4 4
-10z m-1185 -10 c21 -7 18 -8 -17 -7 -23 0 -48 -5 -57 -12 -9 -8 -16 -9 -16
-4 0 10 38 32 55 31 6 0 21 -4 35 -8z m1565 0 c-3 -5 -13 -10 -21 -10 -8 0
-12 5 -9 10 3 6 13 10 21 10 8 0 12 -4 9 -10z m-2132 -16 c9 -4 17 -11 17 -16
0 -6 -8 -7 -17 -3 -10 4 -24 8 -30 8 -7 0 -13 7 -13 15 0 7 6 11 13 8 6 -3 20
-9 30 -12z m2079 3 c4 -6 2 -17 -4 -24 -8 -10 -7 -12 4 -8 8 3 21 -1 28 -10 7
-8 22 -15 34 -15 25 0 52 -15 40 -22 -27 -15 -45 -16 -58 -2 -9 9 -17 10 -21
4 -3 -5 -2 -10 4 -10 6 0 8 -7 4 -16 -3 -8 -12 -13 -21 -9 -8 3 -20 1 -27 -5
-13 -11 -29 2 -30 23 0 9 -11 7 -48 -5 -23 -8 -26 -13 -15 -25 16 -20 -8 -35
-45 -28 -17 3 -26 1 -22 -5 10 -16 -11 -11 -32 8 -10 9 -14 14 -9 10 6 -5 15
-8 21 -8 14 0 46 59 39 72 -4 6 -1 14 6 18 8 5 9 10 2 14 -6 4 -16 -3 -22 -14
-7 -13 -7 -20 -1 -20 6 0 8 -7 4 -16 -5 -15 -7 -15 -15 0 -5 9 -15 16 -22 16
-8 0 -16 9 -19 20 -3 12 -1 18 5 14 6 -4 8 6 5 24 l-5 30 107 0 c68 0 108 -4
113 -11z m128 9 c0 -2 -7 -9 -15 -16 -13 -11 -14 -10 -9 4 5 14 24 23 24 12z
m-1906 -31 c-4 -8 -10 -15 -16 -15 -5 0 -7 -4 -4 -9 3 -5 -1 -14 -9 -21 -8 -7
-15 -9 -16 -4 0 5 -2 18 -4 28 -5 27 2 36 30 36 18 0 23 -4 19 -15z m1513 0
c7 -20 5 -22 -32 -31 -28 -7 -29 -6 -15 11 14 17 13 18 -13 13 -22 -4 -25 -3
-16 8 16 19 68 18 76 -1z m488 -14 c-3 -6 -11 -11 -16 -11 -5 0 -4 6 3 14 14
16 24 13 13 -3z m-2190 -2 c4 -6 4 -13 0 -17 -3 -3 -10 -1 -14 6 -4 7 -15 10
-24 6 -10 -3 -17 -1 -17 5 0 14 47 14 55 0z m1602 -9 c7 -10 9 -21 5 -23 -8
-6 -26 13 -29 31 -4 19 11 14 24 -8z m-1510 -25 c-7 -14 -18 -25 -24 -25 -18
0 -16 10 5 31 24 25 32 23 19 -6z m643 -20 c6 -8 9 -19 5 -25 -11 -17 -22 -11
-27 15 -6 28 3 32 22 10z m687 -10 c8 -24 1 -25 -42 -10 l-40 13 30 5 c17 2
34 5 38 6 4 0 10 -6 14 -14z m363 -18 c0 -5 -4 -5 -10 -2 -5 3 -10 14 -10 23
0 15 2 15 10 2 5 -8 10 -19 10 -23z m-1250 9 c0 -3 -4 -8 -10 -11 -5 -3 -10
-1 -10 4 0 6 5 11 10 11 6 0 10 -2 10 -4z m1545 -6 c17 0 14 -6 -17 -35 -30
-28 -46 -35 -77 -35 -44 0 -93 -18 -85 -31 3 -5 -5 -9 -18 -8 -13 0 -17 3 -10
6 20 8 14 33 -8 33 -11 0 -20 6 -20 13 0 8 18 12 58 12 49 0 62 4 87 28 20 18
37 26 50 22 11 -2 29 -5 40 -5z m-1590 -10 c-3 -5 -10 -10 -16 -10 -5 0 -9 5
-9 10 0 6 7 10 16 10 8 0 12 -4 9 -10z m912 -16 c-7 -7 -37 7 -37 17 0 6 9 5
21 -1 11 -7 19 -14 16 -16z m53 6 c0 -5 -2 -10 -4 -10 -3 0 -8 5 -11 10 -3 6
-1 10 4 10 6 0 11 -4 11 -10z m-380 -8 c0 -4 -9 -13 -20 -20 -16 -10 -20 -10
-20 1 0 8 3 17 7 20 9 9 33 9 33 -1z m-210 -42 c0 -5 -7 -7 -15 -4 -8 4 -15 8
-15 10 0 2 7 4 15 4 8 0 15 -4 15 -10z m-84 -27 c-1 -1 -12 0 -25 4 -15 4 -19
8 -10 13 10 7 42 -10 35 -17z m1464 17 c0 -5 -7 -7 -15 -4 -8 4 -15 8 -15 10
0 2 7 4 15 4 8 0 15 -4 15 -10z m-948 -15 c0 -5 -5 -11 -11 -13 -6 -2 -11 4
-11 13 0 9 5 15 11 13 6 -2 11 -8 11 -13z m523 -4 c3 -5 1 -12 -5 -16 -5 -3
-10 -1 -10 5 0 6 -4 8 -10 5 -5 -3 -10 -1 -10 4 0 13 27 14 35 2z m-106 -164
c1 -10 -3 -15 -9 -12 -5 3 -10 17 -10 31 0 18 -5 24 -21 24 -14 0 -19 -5 -16
-14 4 -9 -5 -19 -24 -26 -16 -7 -36 -22 -44 -33 -18 -26 -65 -57 -87 -57 -9 0
-24 7 -32 16 -14 14 -16 14 -16 0 0 -22 -32 -36 -86 -36 -44 0 -46 -1 -28 -15
18 -14 18 -14 -8 -15 -16 0 -28 5 -28 13 0 8 -3 8 -9 -2 -5 -8 -16 -11 -25 -8
-9 4 -16 2 -16 -2 0 -5 -9 -7 -20 -4 -12 3 -20 0 -20 -7 0 -10 -3 -10 -14 -1
-15 12 -88 12 -80 0 2 -4 -3 -10 -11 -13 -12 -4 -13 -10 -6 -25 9 -15 7 -20
-9 -24 -11 -3 -18 -1 -14 4 3 5 0 9 -6 9 -6 0 -15 12 -21 27 -7 20 -12 24 -18
14 -5 -8 -13 -11 -19 -7 -5 3 -15 -1 -22 -9 -7 -8 -9 -15 -4 -15 5 0 2 -5 -6
-10 -19 -12 -53 -13 -46 -1 3 4 -10 1 -28 -8 -20 -10 -31 -21 -28 -30 4 -10
-1 -11 -19 -6 -21 7 -22 6 -10 -9 10 -12 10 -16 1 -16 -10 0 -10 -3 -1 -14 8
-9 8 -16 2 -20 -5 -4 -12 -2 -16 4 -4 6 -11 8 -16 4 -5 -3 -16 -1 -24 6 -10 8
-19 8 -34 -2 -23 -14 -27 -33 -10 -44 8 -4 8 -9 0 -17 -7 -7 -16 -5 -30 7 -19
17 -19 17 -17 -1 2 -10 12 -19 24 -21 13 -2 19 -8 15 -18 -4 -11 4 -14 36 -12
24 1 41 6 41 13 0 7 9 10 23 8 29 -6 58 23 33 33 -39 15 -9 45 49 48 31 1 75
24 75 39 0 4 -5 5 -11 1 -7 -4 -10 -1 -7 7 3 8 12 15 21 17 31 6 8 -59 -34
-101 -43 -42 -47 -49 -21 -41 14 5 13 2 -4 -13 -23 -20 -27 -73 -6 -86 16 -10
-4 -42 -44 -67 l-26 -18 22 -12 c18 -10 24 -9 35 6 10 14 30 18 91 21 90 3
124 -9 124 -44 0 -24 -6 -26 -52 -23 -16 1 -28 -3 -28 -9 0 -7 -14 -10 -32 -9
-18 1 -33 -3 -36 -10 -2 -8 -9 -9 -22 -2 -14 7 -23 6 -35 -6 -12 -13 -19 -14
-28 -5 -6 6 -7 11 -3 11 5 0 -4 10 -20 23 -30 23 -83 30 -97 12 -6 -7 -10 -6
-14 3 -4 10 -10 9 -30 -4 -26 -16 -26 -16 -19 9 5 20 1 29 -13 37 -25 13 -46
5 -65 -26 -13 -18 -22 -22 -44 -18 -15 3 -46 -1 -69 -9 -31 -10 -45 -11 -54
-3 -8 8 -13 8 -16 -1 -3 -7 -13 -13 -23 -13 -10 0 -20 -6 -23 -12 -7 -19 -66
52 -67 79 0 25 34 48 53 36 18 -12 97 -10 97 2 0 6 -11 22 -23 35 -20 22 -22
28 -10 39 20 19 13 22 -60 27 -54 3 -66 1 -69 -12 -2 -12 -11 -7 -36 17 l-34
33 38 13 c20 7 42 9 48 5 21 -16 67 -32 61 -22 -10 16 32 67 60 74 14 4 25 11
25 16 0 14 58 12 62 -2 3 -7 10 -8 17 -3 11 6 10 10 -3 17 -12 7 -14 14 -6 27
13 25 88 35 108 15 12 -13 17 -13 28 -2 7 7 14 19 16 27 2 8 11 23 21 33 9 10
17 29 17 42 0 14 5 28 12 32 18 11 168 11 168 0 0 -5 7 -1 15 10 13 17 14 17
15 2 0 -10 5 -18 11 -18 5 0 7 5 4 10 -3 6 0 10 8 10 8 0 17 -6 20 -14 6 -15
32 -13 72 4 11 5 47 11 80 15 33 3 68 6 78 7 9 1 17 6 17 11 0 5 17 6 38 3 38
-5 66 4 61 20 -1 5 6 11 15 12 11 3 16 0 12 -7 -15 -23 19 -10 60 25 25 20 49
32 55 28 7 -4 9 -3 5 4 -6 11 106 52 143 52 11 0 23 5 27 12 8 13 32 -42 33
-75z m-1019 32 c0 -4 -8 -7 -19 -6 -12 1 -17 7 -13 19 3 14 7 16 18 7 8 -6 14
-15 14 -20z m510 -19 c0 -5 -4 -10 -10 -10 -5 0 -10 5 -10 10 0 6 5 10 10 10
6 0 10 -4 10 -10z m620 -30 c0 -9 -31 -30 -44 -30 -4 0 -1 9 6 20 13 21 38 27
38 10z m-595 -10 c-3 -5 -13 -10 -21 -10 -8 0 -12 5 -9 10 3 6 13 10 21 10 8
0 12 -4 9 -10z m-375 -34 c0 -8 -4 -17 -9 -21 -12 -7 -24 12 -16 25 9 15 25
12 25 -4z m-255 -25 c3 -5 -3 -17 -12 -27 -11 -11 -18 -13 -21 -5 -9 28 18 55
33 32z m1215 -1 c0 -5 -2 -10 -4 -10 -3 0 -8 5 -11 10 -3 6 -1 10 4 10 6 0 11
-4 11 -10z m-1170 -10 c-20 -13 -33 -13 -25 0 3 6 14 10 23 10 15 0 15 -2 2
-10z m1754 -11 c-2 -4 1 -11 6 -14 8 -5 6 -13 -6 -26 -9 -10 -20 -16 -25 -13
-5 3 -18 0 -29 -6 -11 -6 -20 -8 -20 -6 0 3 14 13 30 21 24 13 28 19 21 33 -7
14 -5 18 9 18 10 0 17 -4 14 -7z m192 -42 c8 3 14 0 14 -6 0 -6 -11 -11 -25
-11 -19 0 -23 4 -18 17 4 10 8 12 10 6 3 -7 11 -9 19 -6z m-1192 -6 c4 -5 -3
-7 -14 -4 -23 6 -26 13 -6 13 8 0 17 -4 20 -9z m-47 -17 c-3 -3 -12 -4 -19 -1
-8 3 -5 6 6 6 11 1 17 -2 13 -5z m-170 -10 c-3 -3 -12 -4 -19 -1 -8 3 -5 6 6
6 11 1 17 -2 13 -5z m-147 -14 c0 -5 -7 -10 -16 -10 -8 0 -12 5 -9 10 3 6 10
10 16 10 5 0 9 -4 9 -10z m-120 -70 c0 -5 -2 -10 -4 -10 -3 0 -8 5 -11 10 -3
6 -1 10 4 10 6 0 11 -4 11 -10z m-30 -16 c0 -8 -4 -12 -10 -9 -5 3 -10 10 -10
16 0 5 5 9 10 9 6 0 10 -7 10 -16z m560 -104 c0 -23 -8 -25 -33 -6 -14 11 -15
15 -5 19 26 11 38 7 38 -13z m-5 -39 c-3 -3 -20 -5 -38 -6 -24 0 -31 -4 -29
-16 2 -16 -26 -35 -36 -24 -11 11 14 58 31 61 11 1 21 5 24 8 3 2 16 0 29 -6
13 -6 22 -14 19 -17z m70 -10 c3 -10 2 -28 -3 -40 -7 -20 -10 -21 -21 -8 -6 8
-15 32 -18 52 -6 35 -5 37 15 26 11 -6 23 -19 27 -30z m-135 -55 c0 -3 -4 -8
-10 -11 -5 -3 -10 -1 -10 4 0 6 5 11 10 11 6 0 10 -2 10 -4z m174 -32 c4 -9
-3 -25 -16 -39 -12 -12 -36 -49 -54 -81 l-33 -59 -56 3 c-33 2 -62 -1 -70 -8
-16 -14 -55 -4 -55 14 0 6 5 17 12 24 9 9 6 12 -14 12 -29 0 -46 16 -32 30 5
5 52 10 104 13 93 4 95 4 93 28 l-2 24 11 -22 c16 -33 24 -29 41 21 l15 45
-26 -10 c-25 -9 -26 -8 -8 6 27 20 82 20 90 -1z m-294 -4 c0 -5 -5 -10 -11
-10 -6 0 -9 -7 -6 -15 9 -21 -8 -28 -23 -10 -11 13 -10 18 6 30 23 17 34 19
34 5z m-1170 -15 c-15 -17 -40 -20 -40 -4 0 6 7 9 15 6 8 -4 17 -2 20 3 4 6 9
10 12 10 3 0 0 -7 -7 -15z m1677 -5 c1 -11 -2 -20 -8 -20 -10 0 -12 23 -2 33
9 9 9 10 10 -13z m-477 -24 c0 -5 -69 -46 -76 -46 -11 0 52 49 64 50 6 0 12
-2 12 -4z m-432 -57 c-10 -7 -9 -9 4 -9 9 0 20 -4 23 -10 3 -6 -5 -10 -19 -10
-19 0 -24 4 -21 20 2 11 -1 20 -6 20 -6 0 -7 5 -4 10 5 8 11 7 21 -1 12 -10
12 -14 2 -20z m326 -4 c-4 -8 -13 -15 -21 -15 -13 0 -13 3 -3 15 7 8 16 15 21
15 5 0 6 -7 3 -15z m-1634 -15 c0 -5 -9 -9 -20 -7 -31 5 -36 17 -7 17 15 0 27
-4 27 -10z m2853 -8 c-10 -7 -23 -10 -31 -7 -7 2 -16 -3 -19 -12 -6 -15 -7
-14 -13 3 -9 24 1 31 45 30 31 -1 33 -3 18 -14z m-2893 -22 c0 -5 -2 -10 -4
-10 -3 0 -8 5 -11 10 -3 6 -1 10 4 10 6 0 11 -4 11 -10z m921 -7 c44 -26 34
-36 -12 -12 -34 17 -43 18 -50 7 -7 -11 -9 -11 -9 1 0 8 -8 4 -20 -10 l-20
-24 4 25 c3 14 5 26 5 28 3 10 79 -1 102 -15z m1163 2 c3 -8 1 -15 -4 -15 -6
0 -10 7 -10 15 0 8 2 15 4 15 2 0 6 -7 10 -15z m656 -5 c0 -5 -5 -10 -11 -10
-5 0 -7 5 -4 10 3 6 8 10 11 10 2 0 4 -4 4 -10z m264 -11 c-3 -5 -13 -8 -22
-7 -11 2 -16 -3 -16 -15 2 -15 -4 -16 -31 -11 -37 7 -61 -14 -26 -23 12 -3 21
-9 21 -13 0 -4 18 -12 40 -19 22 -7 38 -16 35 -21 -3 -5 -1 -11 5 -15 5 -3 10
1 10 9 0 24 15 19 28 -8 12 -27 46 -37 79 -22 32 13 109 -11 150 -47 19 -17
42 -31 51 -32 25 -3 56 -17 64 -29 12 -18 9 -26 -7 -20 -8 4 -15 1 -15 -7 0
-7 -3 -9 -7 -6 -3 4 -12 2 -19 -4 -14 -11 -100 27 -123 55 -11 12 -27 15 -71
12 -55 -4 -59 -3 -65 21 -4 19 -9 22 -19 14 -10 -8 -17 -7 -26 4 -7 8 -18 15
-24 15 -6 0 -4 -5 4 -10 9 -6 10 -10 3 -10 -7 0 -16 7 -20 15 -9 15 -71 23
-90 12 -6 -4 -14 -3 -18 3 -3 5 -16 10 -29 10 -39 0 -141 47 -140 64 2 20 -1
20 -32 -1 -25 -16 -26 -16 -22 3 2 10 -3 24 -11 30 -7 6 -12 17 -9 24 3 10 10
7 25 -10 16 -16 28 -21 46 -16 19 4 24 2 23 -12 -1 -21 45 -24 52 -3 3 8 0 11
-7 7 -6 -4 -11 -1 -11 8 0 9 8 16 18 16 11 0 13 3 5 8 -8 5 -9 12 -2 22 6 11
11 12 17 3 9 -14 70 -24 78 -12 3 5 2 9 -3 8 -20 -3 -34 2 -28 10 3 6 20 4 40
-5 32 -13 36 -13 51 5 16 18 60 18 48 0z m-231 -3 c4 -10 1 -13 -8 -9 -8 3
-12 9 -9 14 7 12 11 11 17 -5z m269 -23 c-6 -2 -10 -9 -6 -14 3 -5 1 -9 -5 -9
-5 0 -12 4 -15 9 -6 9 10 19 29 19 6 0 4 -2 -3 -5z m-2725 -49 c-3 -3 -12 -4
-19 -1 -8 3 -5 6 6 6 11 1 17 -2 13 -5z m1053 -12 c0 -12 -38 -41 -44 -35 -3
4 2 14 12 24 18 19 32 24 32 11z m-1088 -21 c-8 -4 -13 -11 -13 -15 3 -24 -1
-36 -14 -36 -19 0 -20 19 -1 26 8 3 12 12 9 20 -3 9 1 14 13 14 14 0 16 -2 6
-9z m-662 -47 c0 -2 -7 -4 -15 -4 -8 0 -15 4 -15 10 0 5 7 7 15 4 8 -4 15 -8
15 -10z m3208 -20 c67 -19 64 -17 57 -37 -7 -17 -26 -17 -46 0 -8 6 -33 20
-56 32 -41 20 -60 40 -28 27 9 -3 41 -13 73 -22z m-348 -9 c-7 -9 -15 -13 -17
-11 -7 7 7 26 19 26 6 0 6 -6 -2 -15z m68 -18 c2 -11 -7 -18 -32 -23 -20 -3
-36 -11 -36 -18 0 -6 -5 -3 -11 7 -6 10 -8 21 -5 24 3 4 6 1 6 -6 0 -7 5 -9
10 -6 6 4 8 10 5 15 -3 4 4 6 15 3 12 -3 20 -2 19 3 -3 18 1 26 14 22 6 -3 13
-12 15 -21z m582 -67 c0 -5 -2 -10 -4 -10 -3 0 -8 5 -11 10 -3 6 -1 10 4 10 6
0 11 -4 11 -10z m43 -38 c14 -15 14 -19 3 -19 -8 0 -17 9 -19 19 -3 10 -4 18
-3 18 2 0 10 -8 19 -18z m-17 -59 c-7 -7 -26 7 -26 19 0 6 6 6 15 -2 9 -7 13
-15 11 -17z m-3452 -89 c23 -9 20 -24 -4 -24 -11 0 -20 7 -20 15 0 17 2 18 24
9z m76 -104 c0 -5 -5 -10 -11 -10 -5 0 -7 5 -4 10 3 6 8 10 11 10 2 0 4 -4 4
-10z m-163 -26 c-9 -9 -28 6 -21 18 4 6 10 6 17 -1 6 -6 8 -13 4 -17z m-54
-27 c-7 -11 -23 12 -23 33 1 12 4 11 15 -4 8 -10 12 -23 8 -29z m41 -3 c3 -8
2 -12 -4 -9 -6 3 -10 10 -10 16 0 14 7 11 14 -7z"/>
<path d="M2075 4360 c4 -6 11 -8 16 -5 14 9 11 15 -7 15 -8 0 -12 -5 -9 -10z"/>
<path d="M2010 4330 c0 -5 4 -10 9 -10 6 0 13 5 16 10 3 6 -1 10 -9 10 -9 0
-16 -4 -16 -10z"/>
<path d="M2970 4140 c0 -5 5 -10 10 -10 6 0 10 5 10 10 0 6 -4 10 -10 10 -5 0
-10 -4 -10 -10z"/>
<path d="M3685 4340 c27 -12 43 -12 25 0 -8 5 -22 9 -30 9 -10 0 -8 -3 5 -9z"/>
<path d="M3281 3944 c0 -11 3 -14 6 -6 3 7 2 16 -1 19 -3 4 -6 -2 -5 -13z"/>
<path d="M2606 3785 c-4 -10 1 -15 14 -15 13 0 18 5 14 15 -4 8 -10 15 -14 15
-4 0 -10 -7 -14 -15z"/>
<path d="M2653 3783 c9 -9 19 -14 23 -11 10 10 -6 28 -24 28 -15 0 -15 -1 1
-17z"/>
<path d="M2605 3750 c-3 -6 1 -7 9 -4 18 7 21 14 7 14 -6 0 -13 -4 -16 -10z"/>
<path d="M2455 3511 c-19 -8 -19 -8 2 -15 24 -8 43 -1 43 15 0 11 -17 11 -45
0z"/>
<path d="M2665 3500 c4 -6 11 -8 16 -5 14 9 11 15 -7 15 -8 0 -12 -5 -9 -10z"/>
<path d="M2458 3448 c9 -9 15 -9 24 0 9 9 7 12 -12 12 -19 0 -21 -3 -12 -12z"/>
<path d="M2520 3430 c0 -5 12 -10 28 -10 21 0 24 2 12 10 -20 13 -40 13 -40 0z"/>
<path d="M2230 3401 c0 -16 28 -20 34 -5 4 9 -1 14 -14 14 -11 0 -20 -4 -20
-9z"/>
<path d="M2810 4592 c0 -5 7 -9 15 -9 8 0 12 4 9 9 -3 4 -9 8 -15 8 -5 0 -9
-4 -9 -8z"/>
<path d="M3680 4590 c0 -13 11 -13 30 0 12 8 11 10 -7 10 -13 0 -23 -4 -23
-10z"/>
<path d="M712 4578 c2 -6 10 -14 16 -16 7 -2 10 2 6 12 -7 18 -28 22 -22 4z"/>
<path d="M630 4560 c0 -5 5 -10 10 -10 6 0 10 5 10 10 0 6 -4 10 -10 10 -5 0
-10 -4 -10 -10z"/>
<path d="M2135 4550 c-3 -5 1 -10 10 -10 9 0 13 5 10 10 -3 6 -8 10 -10 10 -2
0 -7 -4 -10 -10z"/>
<path d="M700 4540 c0 -5 5 -10 10 -10 6 0 10 5 10 10 0 6 -4 10 -10 10 -5 0
-10 -4 -10 -10z"/>
<path d="M175 4510 c3 -5 8 -10 11 -10 2 0 4 5 4 10 0 6 -5 10 -11 10 -5 0 -7
-4 -4 -10z"/>
<path d="M877 4514 c-20 -20 -3 -33 51 -39 74 -9 102 -24 47 -25 -22 -1 -54
-2 -72 -3 -25 -2 -35 4 -48 26 -11 19 -13 27 -4 27 7 0 10 3 6 6 -3 3 -13 2
-23 -4 -12 -7 -13 -11 -5 -17 9 -5 7 -10 -5 -20 -20 -14 -29 -115 -12 -126 13
-9 -19 -39 -42 -39 -10 0 -35 17 -54 38 -23 23 -36 32 -37 22 0 -8 -2 -25 -5
-38 -2 -14 0 -21 6 -17 13 8 13 -31 -1 -56 -7 -14 -16 -18 -27 -14 -13 5 -14
3 -6 -5 8 -8 21 -7 49 4 52 22 68 21 60 -4 -8 -26 7 -26 31 1 14 16 28 20 63
17 l46 -2 27 54 c15 30 33 54 38 52 6 -1 18 4 26 12 10 11 22 12 44 6 17 -5
30 -6 30 -3 0 2 16 -5 35 -17 20 -13 40 -18 47 -13 7 4 19 8 26 9 22 4 28 14
13 23 -9 6 -7 10 8 14 31 8 27 35 -4 29 -15 -2 -25 0 -25 7 0 7 4 10 9 6 5 -3
12 -1 15 4 3 5 -1 12 -10 15 -9 3 -12 11 -8 18 5 8 2 9 -12 3 -10 -5 -39 -8
-63 -8 -30 1 -40 -1 -30 -8 9 -5 10 -9 2 -9 -23 0 -25 22 -5 43 l21 22 -77 1
c-42 1 -86 5 -97 9 -11 3 -24 3 -28 -1z"/>
<path d="M1205 4491 c-3 -5 -1 -12 5 -16 5 -3 10 1 10 9 0 18 -6 21 -15 7z"/>
<path d="M1365 4424 c-16 -7 -37 -11 -45 -9 -24 7 -38 -7 -45 -48 -8 -42 -10
-41 36 -26 38 13 105 77 92 89 -4 4 -21 1 -38 -6z"/>
<path d="M4175 4329 c-4 -5 -4 -22 -1 -35 5 -18 3 -24 -4 -19 -8 5 -10 -1 -8
-16 2 -13 9 -23 15 -22 6 1 14 -10 17 -25 16 -68 27 -82 62 -82 19 0 34 5 34
10 0 6 12 10 28 10 l27 1 -27 22 c-16 13 -28 30 -28 39 0 8 -7 21 -15 28 -8 7
-15 21 -15 31 0 20 -20 37 -21 17 0 -7 -4 -3 -9 9 -11 27 -46 48 -55 32z"/>
<path d="M1180 4226 c0 -8 -10 -22 -22 -30 -12 -9 -17 -16 -11 -16 7 0 15 5
18 10 3 6 15 10 26 10 21 0 22 1 13 24 -8 20 -24 21 -24 2z"/>
<path d="M561 4064 c0 -11 3 -14 6 -6 3 7 2 16 -1 19 -3 4 -6 -2 -5 -13z"/>
<path d="M2370 4064 c0 -8 -4 -12 -10 -9 -5 3 -10 1 -10 -4 0 -6 7 -11 15 -11
8 0 15 9 15 20 0 11 -2 20 -5 20 -3 0 -5 -7 -5 -16z"/>
<path d="M482 4020 c12 -19 37 -34 44 -27 6 5 -36 47 -46 47 -6 0 -5 -9 2 -20z"/>
<path d="M4675 4024 c-10 -8 -14 -14 -8 -14 6 0 18 -3 26 -6 8 -3 17 1 20 10
8 20 -15 27 -38 10z"/>
<path d="M2356 4015 c-9 -26 -7 -32 5 -12 6 10 9 21 6 23 -2 3 -7 -2 -11 -11z"/>
<path d="M780 3996 c0 -8 -9 -18 -20 -21 -11 -3 -20 -11 -20 -16 0 -12 36 6
46 22 5 8 9 8 14 -1 5 -8 10 -9 14 -2 4 6 -3 16 -14 22 -16 8 -20 8 -20 -4z"/>
<path d="M4387 3983 c-14 -13 -7 -43 10 -43 13 0 14 3 6 11 -6 6 -9 18 -6 25
5 15 1 18 -10 7z"/>
<path d="M4410 3970 c0 -6 7 -13 15 -16 8 -4 15 -14 15 -23 0 -9 6 -23 12 -29
10 -10 10 -17 0 -32 -13 -21 -6 -25 16 -11 11 6 11 17 3 47 -6 21 -10 43 -10
48 1 11 -21 26 -38 26 -7 0 -13 -5 -13 -10z"/>
<path d="M698 3953 c7 -3 16 -2 19 1 4 3 -2 6 -13 5 -11 0 -14 -3 -6 -6z"/>
<path d="M480 3920 c-12 -7 -10 -9 7 -7 12 0 19 5 17 9 -6 10 -6 10 -24 -2z"/>
<path d="M535 3911 c-3 -7 0 -8 9 -5 24 9 20 -23 -4 -36 -11 -6 -30 -21 -44
-33 -22 -20 -31 -22 -89 -17 -36 3 -63 2 -61 -2 6 -10 -30 -28 -55 -28 -14 0
-23 8 -27 25 -3 13 -13 30 -22 37 -14 11 -15 10 -8 -12 5 -14 9 -36 10 -50 1
-21 -3 -25 -24 -22 -14 2 -43 9 -65 16 -22 8 -43 12 -47 9 -12 -6 -10 -43 2
-43 6 0 10 -4 10 -9 0 -4 -11 -6 -24 -4 -23 5 -23 4 -19 -64 3 -37 10 -74 16
-82 9 -10 7 -13 -8 -10 -11 3 -20 11 -20 19 0 8 -4 26 -9 39 -6 17 -10 20 -16
10 -7 -10 -11 -10 -24 0 -14 12 -16 6 -16 -57 l0 -70 45 1 c32 2 45 6 45 17 0
8 9 29 20 45 11 17 20 24 20 16 0 -10 3 -11 13 -3 8 7 18 7 27 2 8 -5 17 -7
20 -5 3 2 6 -5 6 -15 0 -15 -4 -16 -24 -9 -18 7 -23 6 -19 -3 2 -7 10 -12 17
-10 8 2 10 -3 6 -13 -3 -9 -2 -13 4 -10 6 3 13 0 16 -8 2 -7 12 -14 21 -14 13
0 13 2 -3 14 -14 10 -15 16 -5 26 19 18 44 -20 37 -56 -4 -17 -2 -26 4 -22 6
3 10 2 10 -4 0 -15 -18 -23 -25 -11 -3 5 -18 10 -32 10 -22 0 -24 -3 -19 -25
5 -20 2 -26 -19 -31 -14 -3 -25 -10 -25 -15 0 -5 -4 -9 -10 -9 -5 0 -10 7 -10
16 0 13 -3 14 -14 5 -12 -10 -16 -8 -22 11 -4 13 -7 26 -6 29 1 4 -7 9 -18 12
-11 3 -26 -4 -39 -19 -24 -28 -26 -40 -8 -47 9 -4 9 -6 0 -6 -9 -1 -13 -20
-13 -61 0 -50 3 -60 18 -61 14 0 14 -2 -3 -9 -19 -7 -19 -8 5 -18 48 -19 109
-24 145 -12 19 6 33 16 30 21 -4 5 2 9 12 9 10 0 27 7 37 15 11 8 32 15 46 15
15 0 27 6 28 13 6 43 11 66 22 95 12 32 13 32 31 16 11 -9 19 -24 19 -34 0
-24 51 -20 60 5 4 11 5 24 2 29 -2 4 2 12 9 17 11 8 9 13 -10 29 -18 15 -19
20 -7 20 9 0 16 -5 16 -11 0 -5 5 -7 10 -4 6 3 10 15 10 25 0 15 7 18 40 16
23 -2 44 2 48 9 12 20 76 62 114 76 20 7 35 16 32 21 -3 4 0 8 6 8 6 0 13 -14
17 -31 7 -35 20 -27 25 16 2 23 9 31 28 35 14 3 29 15 35 28 7 17 18 22 46 22
24 0 42 7 58 24 19 20 26 22 47 12 13 -6 24 -14 24 -18 0 -17 29 -7 35 12 4
11 11 18 16 14 5 -3 7 -9 5 -13 -8 -13 28 -9 48 5 18 12 18 14 3 20 -11 4 -17
18 -17 40 0 44 -16 51 -121 51 -64 0 -92 5 -112 18 -15 9 -34 14 -43 11 -13
-5 -15 -2 -11 14 4 16 0 20 -18 20 -13 0 -25 -7 -29 -15 -8 -22 -37 -18 -43 5
-6 24 -19 26 -27 5 -6 -17 -42 -20 -51 -5 -3 6 -13 10 -21 10 -8 0 -13 -4 -9
-9 3 -5 1 -12 -5 -16 -9 -6 -14 7 -11 28 0 4 -3 7 -8 7 -5 0 -16 3 -24 6 -8 3
-18 1 -22 -5z m110 -102 c-4 -5 -16 -9 -28 -9 -20 0 -20 0 -2 14 21 15 40 12
30 -5z m15 -38 c0 -6 -4 -13 -10 -16 -5 -3 -10 1 -10 9 0 9 5 16 10 16 6 0 10
-4 10 -9z m406 -13 c-10 -6 -20 -7 -24 -3 -9 8 20 25 31 18 5 -3 2 -10 -7 -15z
m-453 -5 c-7 -2 -21 -2 -30 0 -10 3 -4 5 12 5 17 0 24 -2 18 -5z m-326 -9 c-3
-3 -12 -4 -19 -1 -8 3 -5 6 6 6 11 1 17 -2 13 -5z m469 -15 c31 -19 35 -19 50
-5 20 20 35 21 28 1 -4 -8 -10 -15 -15 -15 -5 0 -9 -7 -9 -17 0 -9 -3 -14 -6
-10 -4 3 -14 -3 -23 -15 -17 -21 -17 -21 -30 11 -12 29 -41 44 -41 21 0 -5 7
-10 15 -10 8 0 15 -4 15 -10 0 -5 -9 -10 -20 -10 -23 0 -26 -10 -8 -28 9 -9 8
-12 -5 -12 -9 0 -17 6 -18 13 0 10 -2 10 -6 0 -5 -15 -39 -17 -47 -4 -3 5 -20
7 -38 5 -25 -3 -29 -1 -20 8 7 7 12 19 12 28 1 22 70 69 104 70 16 0 44 -9 62
-21z m-187 -60 c-19 -12 -24 -2 -8 17 9 11 14 13 17 4 3 -7 -2 -16 -9 -21z
m-450 8 c15 -19 2 -29 -15 -12 -8 7 -14 16 -14 19 0 11 17 6 29 -7z m31 -42
c-7 -8 -17 -15 -23 -15 -6 0 -2 7 9 15 25 19 30 19 14 0z m110 -25 c0 -5 -2
-10 -4 -10 -3 0 -8 5 -11 10 -3 6 -1 10 4 10 6 0 11 -4 11 -10z m254 -62 c4 3
6 0 6 -6 0 -6 -19 -16 -42 -22 -24 -7 -52 -18 -64 -25 -19 -12 -21 -12 -20 6
2 33 43 58 82 49 18 -4 35 -5 38 -2z m-224 -29 c0 -18 -2 -19 -15 -9 -15 12
-12 30 6 30 5 0 9 -10 9 -21z m121 -75 c-19 -8 -37 -12 -40 -9 -9 10 22 25 49
24 23 0 22 -1 -9 -15z m-181 -4 c0 -5 -5 -10 -11 -10 -5 0 -7 5 -4 10 3 6 8
10 11 10 2 0 4 -4 4 -10z m-110 -90 c0 -5 -4 -10 -10 -10 -5 0 -10 5 -10 10 0
6 5 10 10 10 6 0 10 -4 10 -10z m-3 -105 c0 -11 -4 -12 -14 -4 -7 6 -13 13
-13 15 0 2 6 4 13 4 8 0 14 -7 14 -15z"/>
<path d="M4342 3903 c-14 -27 -5 -41 23 -35 30 5 30 7 6 33 -19 20 -20 20 -29
2z"/>
<path d="M1365 3890 c-3 -5 1 -10 10 -10 9 0 13 5 10 10 -3 6 -8 10 -10 10 -2
0 -7 -4 -10 -10z"/>
<path d="M4660 3880 c0 -5 5 -10 10 -10 6 0 10 5 10 10 0 6 -4 10 -10 10 -5 0
-10 -4 -10 -10z"/>
<path d="M4010 3831 c0 -5 -7 -17 -16 -25 -17 -18 -12 -20 41 -16 41 2 53 17
29 35 -21 16 -54 20 -54 6z"/>
<path d="M3695 3742 c-11 -8 -48 -62 -42 -62 2 0 17 6 33 14 16 8 42 20 58 26
16 6 26 13 23 17 -10 9 -61 13 -72 5z"/>
<path d="M3811 3741 c-7 -5 -9 -11 -4 -14 5 -3 15 -2 23 3 7 4 19 6 27 3 7 -3
13 0 13 6 0 13 -39 14 -59 2z"/>
<path d="M0 3699 c0 -5 5 -7 10 -4 5 3 10 8 10 11 0 2 -4 4 -10 4 -5 0 -10 -5
-10 -11z"/>
<path d="M1010 3681 c0 -17 15 -19 28 -5 11 12 9 14 -8 14 -11 0 -20 -4 -20
-9z"/>
<path d="M1146 3682 c-11 -10 17 -32 41 -32 21 0 23 3 14 14 -13 15 -47 27
-55 18z"/>
<path d="M1474 3655 c-3 -8 -4 -20 -2 -27 3 -7 7 -1 10 15 6 29 1 36 -8 12z"/>
<path d="M3581 3646 c-17 -9 -20 -15 -11 -21 7 -4 21 1 33 14 24 24 14 27 -22
7z"/>
<path d="M800 3580 c0 -5 5 -10 10 -10 18 0 11 -18 -10 -25 -26 -8 -26 -27 1
-43 16 -10 24 -11 35 -1 8 6 17 9 20 6 9 -9 65 14 58 24 -3 5 -19 9 -35 9 -17
0 -28 4 -24 9 7 12 -22 41 -41 41 -8 0 -14 -4 -14 -10z"/>
<path d="M3448 3583 c7 -3 16 -2 19 1 4 3 -2 6 -13 5 -11 0 -14 -3 -6 -6z"/>
<path d="M4798 3519 c3 -21 7 -27 13 -18 4 7 3 21 -2 31 -14 25 -16 23 -11
-13z"/>
<path d="M4446 3509 c3 -5 1 -9 -5 -9 -6 0 -22 -21 -37 -46 l-27 -46 31 -28
c17 -15 48 -31 69 -34 21 -4 48 -14 61 -22 19 -12 22 -12 22 0 0 7 7 16 15 20
8 3 15 1 15 -4 0 -6 5 -10 11 -10 5 0 7 5 4 10 -3 6 1 13 9 16 26 10 -6 55
-59 86 -19 11 -30 24 -29 37 1 14 -5 21 -17 21 -11 0 -19 4 -19 9 0 5 -11 9
-25 9 -13 0 -22 -4 -19 -9z"/>
<path d="M75 3499 c-4 -6 -5 -12 -2 -15 2 -3 7 2 10 11 7 17 1 20 -8 4z"/>
<path d="M140 3501 c0 -6 4 -13 10 -16 6 -3 7 1 4 9 -7 18 -14 21 -14 7z"/>
<path d="M1966 3493 c-6 -14 -5 -15 5 -6 7 7 10 15 7 18 -3 3 -9 -2 -12 -12z"/>
<path d="M123 3454 c-3 -8 -1 -20 6 -27 8 -8 11 -4 11 16 0 30 -7 35 -17 11z"/>
<path d="M1001 3454 c0 -11 3 -14 6 -6 3 7 2 16 -1 19 -3 4 -6 -2 -5 -13z"/>
<path d="M530 3450 c-8 -5 -12 -11 -9 -14 2 -3 11 -1 19 4 8 5 12 11 9 14 -2
3 -11 1 -19 -4z"/>
<path d="M1551 3416 c12 -10 59 -15 59 -6 0 5 -14 10 -32 10 -17 0 -29 -2 -27
-4z"/>
<path d="M335 3340 c3 -5 14 -10 23 -10 15 0 15 2 2 10 -20 13 -33 13 -25 0z"/>
<path d="M430 3310 c-14 -4 -44 -13 -67 -20 -36 -11 -43 -17 -43 -39 0 -20 -3
-22 -9 -12 -5 8 -21 16 -35 18 -21 3 -28 -2 -37 -24 -8 -22 -7 -30 7 -40 13
-9 15 -16 7 -24 -11 -11 -6 -49 7 -49 5 0 11 6 13 13 9 20 28 -14 24 -41 -3
-18 -1 -21 13 -17 11 3 20 -1 23 -10 4 -8 13 -12 22 -9 10 4 15 0 15 -15 0
-21 13 -26 54 -22 15 1 16 -2 7 -13 -9 -11 -9 -16 0 -22 18 -11 144 -13 160
-3 10 6 10 9 2 9 -7 0 -13 6 -13 13 0 7 9 13 20 13 11 0 20 -6 20 -13 0 -20
31 -30 85 -29 39 1 50 5 50 17 0 9 10 25 21 35 29 25 38 68 19 84 -12 10 -15
9 -15 -6 0 -16 -2 -16 -20 4 -11 12 -20 27 -20 35 0 20 -12 28 -25 17 -9 -8
-14 -6 -19 5 -4 11 -2 14 7 9 6 -4 5 1 -4 12 -9 10 -24 34 -33 52 -14 26 -22
32 -50 32 -18 0 -36 3 -40 7 -16 16 -82 1 -108 -25 -16 -14 -28 -23 -28 -19 0
4 -10 -3 -21 -14 -12 -12 -24 -17 -28 -12 -3 6 -18 13 -33 17 -16 3 -28 13
-28 21 0 17 18 19 55 5 22 -8 30 -6 48 14 12 13 32 26 45 30 12 4 20 12 17 17
-7 11 -30 11 -65 -1z m150 -60 c0 -13 -11 -13 -30 0 -12 8 -11 10 8 10 12 0
22 -4 22 -10z m-54 -65 c4 -8 10 -12 15 -9 5 3 6 -2 3 -10 -7 -19 -34 -9 -34
13 0 14 -2 14 -10 1 -5 -8 -10 -10 -10 -4 0 25 27 32 36 9z m-73 -25 c-3 -12
-8 -19 -11 -16 -5 6 5 36 12 36 2 0 2 -9 -1 -20z m227 10 c0 -5 -4 -10 -10
-10 -5 0 -10 5 -10 10 0 6 5 10 10 10 6 0 10 -4 10 -10z m-85 -18 c-3 -3 -16
-7 -28 -9 -21 -3 -21 -2 -3 12 17 13 45 11 31 -3z m69 -48 c9 -3 16 -14 16
-23 0 -9 6 -23 13 -30 10 -11 7 -12 -13 -6 -14 4 -29 13 -34 20 -8 11 -12 9
-21 -8 -9 -19 -19 -22 -62 -21 -28 1 -56 5 -63 9 -9 5 -11 4 -6 -3 4 -7 1 -12
-8 -12 -17 0 -32 38 -19 50 4 5 44 13 88 18 44 5 83 10 87 11 3 0 13 -2 22 -5z"/>
<path d="M4535 3290 c-3 -5 1 -10 9 -10 9 0 16 5 16 10 0 6 -4 10 -9 10 -6 0
-13 -4 -16 -10z"/>
<path d="M2480 3281 c0 -5 -14 -14 -32 -20 -34 -12 -33 -19 1 -26 32 -6 72 11
65 29 -6 16 -34 30 -34 17z"/>
<path d="M2636 3251 c-4 -7 -5 -15 -2 -18 9 -9 19 4 14 18 -4 11 -6 11 -12 0z"/>
<path d="M2915 3178 c8 -42 22 -58 51 -58 32 0 31 28 -1 36 -15 4 -28 16 -31
30 -9 36 -25 29 -19 -8z"/>
<path d="M2317 3179 c-10 -6 -15 -14 -12 -20 4 -5 1 -9 -6 -9 -8 0 -7 -5 2
-17 12 -16 12 -17 -1 -7 -21 16 -50 13 -50 -4 0 -9 3 -12 6 -9 4 3 15 2 26 -4
15 -8 25 -5 49 15 17 14 35 26 40 26 14 0 2 18 -19 29 -11 6 -24 6 -35 0z"/>
<path d="M2040 3159 c0 -5 5 -7 10 -4 6 3 10 8 10 11 0 2 -4 4 -10 4 -5 0 -10
-5 -10 -11z"/>
<path d="M2378 3135 c-24 -32 -22 -45 6 -45 29 0 44 19 26 30 -7 4 -10 12 -6
18 13 22 -10 19 -26 -3z"/>
<path d="M2855 3129 c4 -5 1 -9 -4 -9 -6 0 -11 -4 -11 -9 0 -5 11 -8 25 -7 30
1 34 31 5 33 -11 1 -18 -2 -15 -8z"/>
<path d="M2909 3097 c-39 -36 -86 -65 -130 -80 -34 -11 -43 -20 -45 -41 -3
-25 -1 -26 52 -26 30 0 54 5 54 10 0 6 6 10 14 10 8 0 17 11 20 24 3 13 17 34
31 47 13 13 25 30 25 38 0 11 4 9 15 -5 14 -19 14 -19 15 2 0 37 -23 47 -51
21z"/>
<path d="M2240 3091 c0 -10 22 -31 32 -31 17 0 7 28 -12 33 -11 3 -20 2 -20
-2z"/>
<path d="M1320 3080 c0 -5 11 -10 24 -10 14 0 28 5 31 10 4 6 -7 10 -24 10
-17 0 -31 -4 -31 -10z"/>
<path d="M1460 3071 c0 -5 -3 -18 -6 -28 -4 -13 0 -11 15 7 l22 25 -2 -30 c-2
-37 9 -65 26 -65 8 0 21 -7 30 -16 11 -12 19 -14 27 -6 16 16 -28 83 -49 75
-11 -4 -14 -3 -9 6 4 6 2 18 -4 26 -14 16 -50 20 -50 6z"/>
<path d="M1343 3062 c-23 -2 -33 -8 -33 -20 0 -11 3 -13 8 -6 4 7 31 11 66 10
32 0 61 4 63 9 3 10 -40 13 -104 7z"/>
<path d="M2080 3045 c0 -8 4 -15 9 -15 5 0 11 7 15 15 3 9 0 15 -9 15 -8 0
-15 -7 -15 -15z"/>
<path d="M2398 3046 c-28 -10 -32 -18 -28 -68 1 -14 -3 -29 -9 -33 -18 -10
-13 -25 8 -25 30 0 51 -11 51 -27 0 -10 -6 -12 -20 -8 -14 5 -20 2 -20 -9 0
-20 -14 -21 -29 -2 -13 15 -71 27 -71 14 0 -4 -9 -8 -20 -8 -12 0 -30 -8 -41
-19 -12 -11 -29 -17 -40 -14 -10 3 -19 0 -19 -6 0 -6 5 -11 10 -11 5 0 9 -6 7
-12 -1 -7 8 -14 21 -16 12 -2 22 1 22 6 0 9 81 42 102 42 4 0 8 -7 8 -16 0
-14 3 -14 15 -4 18 15 22 13 29 -20 10 -43 -20 -69 -86 -74 -31 -2 -58 0 -60
5 -2 5 -21 0 -43 -10 -22 -10 -67 -27 -101 -36 -49 -15 -63 -23 -73 -47 -7
-16 -18 -31 -25 -32 -6 -2 -45 -14 -86 -27 -41 -12 -79 -23 -84 -23 -5 -1 -13
-13 -17 -28 -9 -34 13 -57 35 -38 22 18 59 8 73 -20 7 -14 13 -21 13 -17 0 4
15 -3 33 -17 19 -15 39 -26 44 -26 6 0 13 -10 17 -22 11 -41 7 -49 -18 -44
-14 2 -27 -1 -30 -7 -2 -7 -8 -2 -11 11 -4 12 -15 23 -24 24 -9 0 -27 2 -41 4
-14 1 -42 3 -62 5 -25 1 -38 7 -38 16 0 8 4 12 8 9 5 -3 9 1 9 9 0 8 -4 15 -9
15 -5 0 -7 15 -3 33 3 17 3 28 -2 22 -11 -14 -36 -18 -28 -5 4 6 8 23 10 38 1
14 7 28 13 30 6 2 9 9 6 17 -4 10 1 12 17 8 18 -5 21 -3 16 11 -4 10 -7 20 -7
22 0 2 -7 4 -15 4 -8 0 -15 5 -15 10 0 6 11 8 26 4 20 -5 25 -3 22 7 -3 8 2
22 10 32 14 16 14 20 2 27 -8 5 -18 6 -22 4 -4 -3 -8 1 -8 10 0 11 11 14 45
13 54 -2 72 12 53 42 -11 18 -11 23 2 31 11 7 1 10 -35 10 -28 0 -65 4 -83 10
-50 14 -71 -3 -68 -54 2 -23 9 -54 16 -71 16 -37 20 -94 8 -117 -6 -12 -5 -18
2 -18 6 0 9 -4 5 -10 -3 -5 -12 -7 -20 -3 -9 3 -15 -1 -15 -11 0 -9 -4 -16
-10 -16 -6 0 -6 -9 -1 -22 7 -18 3 -28 -16 -46 -13 -12 -30 -19 -36 -15 -8 4
-7 1 1 -9 10 -13 10 -17 0 -21 -10 -4 -10 -6 0 -6 20 -2 14 -21 -7 -21 -16 0
-19 6 -16 40 1 23 10 49 19 59 21 23 20 30 -4 24 -11 -3 -20 -9 -20 -14 0 -5
-9 -9 -20 -9 -11 0 -20 5 -20 10 0 6 -5 10 -11 10 -6 0 -9 -7 -5 -15 9 -23 -4
-45 -27 -45 -16 0 -18 3 -9 12 25 25 14 40 -28 35 -30 -3 -40 -1 -40 10 0 9 7
12 24 7 32 -8 64 21 72 64 7 34 76 111 101 112 7 0 10 7 6 17 -5 12 -2 15 10
10 13 -5 15 0 12 26 -2 17 1 37 7 45 6 7 7 12 2 11 -5 -1 -11 0 -14 1 -26 10
-40 6 -40 -11 0 -13 -12 -25 -35 -35 -19 -8 -35 -19 -35 -25 0 -5 -5 -7 -10
-4 -6 3 -22 -3 -36 -14 -15 -12 -31 -21 -36 -21 -6 0 -23 -9 -39 -21 -16 -11
-34 -17 -41 -13 -9 5 -8 2 1 -9 12 -15 12 -17 -1 -12 -9 4 -22 -1 -31 -9 -9
-9 -22 -16 -30 -16 -9 0 -23 -3 -33 -7 -16 -6 -16 -7 2 -15 13 -6 9 -7 -14 -3
-19 3 -31 1 -27 -4 8 -13 -31 -24 -81 -23 -36 1 -44 -2 -50 -20 -5 -16 0 -27
20 -43 33 -26 33 -36 -1 -62 -31 -22 -160 -43 -148 -24 4 7 -8 11 -32 11 -21
0 -48 3 -60 6 -25 7 -31 29 -10 38 6 3 0 3 -15 0 -68 -14 -138 -5 -138 18 0 4
-8 4 -17 1 -16 -6 -16 -5 -4 10 12 15 11 17 -3 17 -18 0 -36 -36 -33 -68 1
-14 7 -19 20 -16 11 2 17 -2 14 -9 -2 -7 -13 -11 -23 -10 -18 1 -18 0 1 -15
34 -27 38 -51 12 -61 -30 -12 -65 -61 -43 -61 10 0 13 -6 9 -16 -4 -11 -8 -12
-13 -4 -5 9 -9 9 -14 1 -11 -16 -26 -13 -20 4 7 19 -19 20 -38 3 -10 -10 -85
-16 -108 -9 -3 1 -35 12 -72 25 -52 17 -68 19 -68 9 0 -7 5 -12 12 -11 6 2 14
-5 16 -15 2 -10 -2 -16 -8 -15 -6 2 -18 -7 -27 -19 -14 -21 -14 -23 10 -32 30
-12 42 -38 25 -59 -7 -8 -14 -31 -15 -51 -1 -21 -10 -42 -21 -52 -11 -8 -23
-25 -27 -38 -5 -15 -12 -20 -23 -16 -10 4 -24 -4 -38 -21 -13 -14 -27 -23 -33
-20 -5 4 -13 1 -16 -5 -8 -12 -56 -3 -66 13 -8 12 -46 15 -78 4 -32 -11 -19 9
23 35 30 19 30 20 4 14 -24 -6 -26 -4 -24 19 2 15 7 30 11 34 9 9 75 9 75 0 0
-14 27 -9 40 7 10 12 10 15 -1 15 -8 0 -4 7 9 16 12 8 22 20 22 26 0 6 7 19
16 29 15 17 14 18 -18 23 -56 9 -192 14 -221 9 l-27 -5 0 -135 0 -135 27 -22
c27 -21 83 -29 94 -13 3 4 13 5 23 1 14 -5 15 -9 4 -15 -9 -6 -7 -9 10 -9 12
0 22 5 22 10 0 6 7 10 16 10 9 0 12 -5 8 -12 -4 -6 -3 -8 4 -5 13 9 43 -3 37
-14 -3 -5 7 -11 22 -14 15 -4 44 -13 63 -22 19 -9 48 -16 65 -17 19 -1 30 -6
30 -16 0 -21 36 -25 47 -6 6 10 23 16 46 16 82 0 111 11 161 61 37 37 57 49
80 49 16 0 33 -5 36 -10 4 -6 11 -8 16 -5 5 3 6 -1 3 -9 -3 -9 -14 -16 -23
-17 -10 0 -11 -2 -3 -6 6 -2 9 -10 5 -16 -3 -7 5 -2 19 11 13 12 36 22 51 22
17 0 27 6 28 15 3 28 4 33 12 41 14 15 7 44 -16 59 -16 10 -24 26 -25 51 -2
19 1 33 6 30 5 -3 18 1 28 8 23 18 44 4 37 -24 -3 -11 0 -27 7 -35 10 -12 10
-19 2 -27 -16 -16 -15 -38 2 -38 16 0 29 27 20 41 -8 14 19 69 34 69 7 0 11 4
8 8 -2 4 4 8 15 8 13 0 19 -7 19 -22 0 -12 3 -29 6 -38 4 -10 -1 -18 -12 -22
-23 -8 -54 -34 -54 -45 0 -4 7 -9 15 -11 12 -2 12 -7 2 -28 -11 -21 -10 -30 3
-52 8 -16 21 -28 27 -28 18 0 41 40 46 80 8 58 28 103 59 133 33 30 43 30 141
-5 44 -16 61 -18 70 -9 6 6 19 11 30 11 10 0 32 13 50 30 18 16 37 30 43 30 6
0 17 7 24 15 14 17 71 20 87 4 6 -6 25 -8 45 -4 29 6 34 10 33 33 0 15 3 47 8
72 11 66 14 150 5 156 -4 3 -8 10 -8 15 0 6 5 7 10 4 6 -3 10 -1 10 5 0 6 4 9
8 6 5 -3 25 4 45 14 46 25 44 25 51 -5 4 -14 11 -25 17 -25 24 0 35 -24 29
-66 -4 -23 -2 -50 3 -60 6 -10 6 -14 0 -11 -5 3 -8 -12 -7 -36 1 -23 -1 -44
-5 -47 -3 -3 -14 -17 -24 -32 -20 -32 -17 -33 70 -42 29 -3 85 -12 125 -20
166 -32 176 -31 226 26 17 19 20 28 11 33 -8 6 -10 4 -4 -5 5 -9 4 -11 -4 -6
-6 4 -9 12 -5 17 3 5 10 7 15 4 5 -4 9 1 9 9 0 9 -7 16 -16 16 -11 0 -7 8 13
24 20 17 36 23 56 19 15 -3 24 -9 21 -14 -3 -5 2 -6 10 -3 10 4 17 -2 22 -20
7 -28 -4 -55 -15 -38 -9 15 -28 1 -33 -23 -2 -14 3 -20 17 -20 14 0 26 13 40
42 31 64 45 74 44 32 -1 -19 8 -59 20 -89 26 -69 27 -90 1 -91 -33 -2 -38 -4
-47 -12 -4 -5 -3 -8 2 -7 28 6 37 0 25 -15 -11 -13 -14 -13 -27 0 -18 19 -33
19 -33 1 0 -8 -15 -17 -35 -20 -22 -5 -33 -11 -29 -18 4 -7 2 -8 -5 -4 -7 4
-27 1 -46 -8 -18 -9 -41 -13 -51 -9 -12 4 -15 3 -10 -5 4 -7 3 -12 -2 -12 -5
0 -12 -18 -16 -40 -4 -28 -11 -40 -23 -40 -15 0 -14 -2 2 -14 11 -8 23 -12 27
-10 4 3 31 -18 58 -45 29 -30 45 -51 36 -51 -8 0 -20 -8 -25 -17 -9 -16 -12
-16 -21 -3 -13 20 -13 4 0 -21 9 -15 5 -27 -17 -57 -15 -20 -27 -38 -28 -38 0
-1 -11 -4 -25 -8 -14 -3 -20 -3 -13 0 14 6 -1 49 -25 74 -8 8 -12 9 -8 3 4 -7
3 -13 -3 -13 -5 0 -11 8 -14 18 -2 9 -4 -8 -5 -39 -1 -49 2 -59 25 -80 18 -17
27 -20 30 -11 3 6 11 12 20 12 26 0 9 -34 -24 -49 -19 -8 -31 -21 -30 -30 4
-31 -18 -22 -26 10 -6 24 -11 29 -17 19 -5 -8 -6 -18 -4 -22 3 -4 -1 -8 -9 -8
-11 0 -13 9 -7 41 4 22 4 37 0 32 -4 -4 -11 -25 -14 -45 -5 -29 -3 -40 13 -55
19 -18 24 -75 7 -101 -4 -7 -4 -12 0 -12 3 0 1 -7 -6 -15 -14 -17 -50 -4 -50
18 0 7 4 6 10 -3 8 -13 10 -12 10 3 0 9 5 16 12 15 7 -2 13 7 14 18 0 12 4 26
7 32 4 5 -1 16 -10 23 -14 12 -16 12 -9 0 5 -8 3 -17 -5 -22 -25 -16 -30 -10
-16 19 10 19 11 37 5 60 -12 46 -30 40 -28 -10 4 -96 2 -105 -30 -118 -16 -7
-30 -16 -30 -21 0 -5 -9 -9 -19 -9 -11 0 -26 -6 -34 -14 -8 -8 -27 -16 -43
-18 -16 -2 -32 -7 -36 -13 -5 -6 -8 -5 -8 3 0 6 -7 12 -15 12 -8 0 -15 5 -15
10 0 21 -2 25 -16 33 -23 13 -16 34 19 58 17 12 39 31 48 42 9 11 23 21 32 23
19 3 88 70 80 78 -4 3 -22 -10 -40 -29 -18 -19 -37 -35 -41 -35 -5 0 -28 -14
-52 -31 -23 -17 -39 -26 -36 -20 8 12 -3 27 -51 73 -18 17 -33 40 -33 50 0 12
-4 16 -12 12 -7 -5 -8 -3 -3 6 4 7 4 15 -1 19 -15 10 -44 68 -44 86 0 11 -5
15 -14 12 -22 -9 -27 4 -9 21 10 11 12 17 4 20 -6 2 -11 13 -11 23 0 12 -4 17
-11 13 -8 -4 -9 0 -4 15 8 27 -1 27 -15 0 -9 -15 -8 -24 2 -36 10 -13 10 -17
1 -20 -7 -3 -13 -11 -13 -19 0 -8 -5 -14 -10 -14 -6 0 -10 6 -9 13 4 31 -1 38
-20 28 -10 -6 -21 -24 -23 -40 -2 -17 0 -27 5 -24 5 3 4 -4 -3 -16 -6 -12 -8
-31 -4 -43 5 -17 -2 -29 -32 -55 -22 -18 -40 -29 -42 -23 -5 15 -22 12 -22 -4
0 -8 9 -18 20 -21 20 -6 20 -7 3 -36 -10 -16 -21 -29 -25 -29 -4 0 -2 -11 4
-25 6 -14 19 -25 28 -25 46 0 56 -88 10 -91 -11 -1 -24 -2 -30 -3 -5 -1 -10 2
-10 7 1 15 -26 35 -43 31 -10 -1 -15 1 -12 7 4 5 10 7 15 4 13 -8 20 9 9 25
-7 12 -9 12 -9 1 0 -11 -3 -11 -15 -1 -8 7 -15 9 -15 5 0 -4 -6 -2 -14 4 -11
9 -16 9 -21 1 -5 -7 -20 -9 -41 -5 -40 7 -79 -21 -68 -48 4 -11 -14 -37 -57
-82 -74 -76 -68 -80 -98 65 -5 25 -17 59 -25 75 -9 17 -16 37 -16 44 0 10 -3
12 -10 5 -6 -6 -5 -44 2 -108 9 -81 9 -99 -3 -106 -16 -11 -39 6 -39 29 0 9
-9 24 -19 33 -19 16 -21 15 -45 -9 -24 -23 -28 -24 -56 -13 -21 9 -30 19 -30
36 0 15 -6 24 -15 24 -17 0 -39 46 -29 61 3 5 19 9 35 9 43 0 92 50 83 85 -3
14 -10 27 -14 30 -12 7 -77 -22 -83 -37 -3 -9 -21 -13 -48 -13 -25 0 -42 5
-39 10 3 5 12 10 20 10 17 0 16 52 -2 98 l-11 28 -20 -22 c-13 -14 -22 -18
-25 -11 -2 7 -8 10 -13 6 -5 -3 -12 8 -15 25 -4 17 -11 31 -16 31 -5 0 -6 -4
-3 -10 3 -5 2 -10 -3 -10 -13 0 -57 54 -54 67 1 6 -2 14 -8 18 -5 3 -7 18 -4
32 6 23 4 25 -14 21 -15 -4 -19 -2 -15 8 4 10 0 12 -13 7 -11 -4 -15 -3 -11 4
9 15 -12 21 -48 16 -20 -3 -34 -13 -42 -29 -7 -16 -8 -24 -1 -24 6 0 8 -9 5
-20 -3 -11 -1 -22 3 -25 5 -3 -1 -16 -13 -30 -20 -22 -23 -23 -34 -8 -12 15
-13 15 -13 1 0 -9 -7 -18 -14 -21 -10 -4 -13 -1 -9 9 3 8 -1 14 -10 14 -8 0
-20 7 -27 15 -10 12 -8 17 14 26 17 8 30 9 38 2 7 -5 21 -13 31 -16 13 -5 17
-1 17 18 0 16 -6 25 -15 25 -8 0 -15 -4 -15 -10 0 -5 -5 -10 -11 -10 -6 0 -8
7 -5 16 5 12 2 15 -11 9 -10 -3 -30 -9 -45 -12 -16 -3 -29 -14 -32 -27 -5 -16
-8 -18 -15 -7 -5 7 -14 10 -20 7 -6 -4 -11 -1 -11 6 0 10 -3 9 -11 -2 -8 -12
-9 -11 -4 6 4 15 0 24 -11 28 -9 4 -19 4 -22 1 -3 -3 0 -5 6 -5 7 0 12 -4 12
-9 0 -4 -12 -6 -27 -3 -25 5 -27 4 -14 -11 7 -10 10 -17 5 -17 -5 0 -2 -5 6
-10 8 -5 23 -7 33 -4 9 3 17 0 17 -6 0 -6 -5 -8 -12 -4 -8 5 -9 2 -5 -10 6
-14 3 -16 -16 -11 -33 10 -49 36 -43 69 6 27 4 28 -22 21 -35 -9 -36 -9 -20
-34 11 -18 11 -23 0 -30 -10 -6 -5 -10 17 -14 17 -4 40 -16 51 -27 28 -28 9
-57 -42 -65 -38 -7 -38 -7 -38 -56 0 -39 3 -47 15 -43 19 8 19 -10 0 -30 -8
-8 -15 -32 -15 -54 0 -40 0 -40 38 -38 46 2 62 12 62 37 0 26 58 85 71 72 5
-5 10 -21 11 -35 1 -16 7 -24 15 -21 7 3 13 0 13 -5 0 -6 7 -18 16 -26 14 -15
14 -16 0 -16 -18 0 -20 -7 -16 -69 3 -64 27 -86 82 -76 24 4 67 8 96 10 45 3
51 1 41 -11 -9 -11 -8 -14 2 -14 11 0 11 -2 -1 -10 -8 -5 -11 -10 -6 -10 5 0
3 -6 -3 -14 -9 -10 -8 -15 4 -20 8 -3 15 -12 15 -20 0 -16 -21 -26 -56 -26
-14 0 -23 -4 -20 -9 9 -14 -54 -33 -69 -21 -9 8 -14 5 -18 -10 -3 -11 -12 -20
-21 -20 -9 0 -16 -4 -16 -10 0 -6 36 -10 89 -10 69 0 90 3 95 15 3 8 20 21 38
28 31 13 34 12 52 -10 10 -13 26 -23 35 -22 9 1 29 -3 44 -9 36 -15 353 -16
362 -2 3 5 16 15 28 22 20 10 21 10 8 -5 -12 -16 -8 -17 44 -17 62 0 338 43
395 62 19 7 69 14 110 17 67 5 75 8 78 28 4 29 -36 72 -49 52 -7 -11 -9 -10
-9 4 0 9 1 17 3 17 1 0 18 -4 36 -10 24 -7 39 -6 48 2 9 7 42 9 103 4 76 -6
91 -4 96 9 3 8 11 15 17 15 6 0 30 9 54 21 28 14 43 27 43 40 0 10 3 18 8 17
6 -2 70 28 81 38 2 2 -2 10 -9 19 -15 18 -17 17 48 20 56 2 75 11 54 24 -7 4
-10 15 -6 25 8 20 42 13 62 -12 6 -9 12 -11 12 -4 0 7 17 10 44 9 24 -1 42 -5
40 -9 -11 -18 32 -25 70 -12 44 16 66 12 66 -11 0 -8 5 -15 10 -15 6 0 10 13
10 29 0 16 7 34 15 41 9 8 13 28 12 62 -2 41 2 53 21 68 14 12 22 29 22 50 0
30 -2 32 -26 26 -20 -5 -27 -3 -31 13 -3 11 -15 21 -27 23 -11 2 -20 7 -18 12
2 5 -7 14 -20 21 -20 10 -26 9 -46 -9 -33 -29 -49 -3 -21 35 20 28 68 47 78
30 4 -5 14 -4 25 5 11 8 16 14 10 14 -5 0 5 9 21 20 17 11 37 32 45 47 15 28
21 33 40 33 6 0 10 9 10 21 0 11 4 18 9 15 5 -3 8 2 7 12 -1 11 6 17 19 17 11
1 26 5 34 9 9 6 12 5 8 -1 -8 -13 17 -24 37 -17 8 3 17 1 20 -4 3 -6 -1 -13
-9 -16 -22 -8 -34 -47 -23 -72 8 -16 16 -20 36 -16 24 5 26 3 13 -11 -7 -9
-17 -15 -21 -12 -5 3 -7 -2 -6 -12 2 -10 13 -17 30 -18 28 -1 49 -22 41 -42
-2 -6 7 -19 21 -27 34 -23 31 -43 -3 -21 -16 10 -34 25 -41 34 -13 15 -15 14
-29 -7 -17 -24 -43 -30 -43 -9 0 9 -2 9 -8 -1 -6 -9 -12 -5 -22 13 -13 24 -14
24 -32 8 -21 -19 -23 -39 -5 -46 8 -4 7 -6 -3 -6 -10 -1 -16 -10 -16 -26 0
-27 7 -30 37 -15 15 9 19 7 19 -5 0 -10 -7 -15 -17 -13 -13 2 -18 -4 -18 -21
0 -14 -6 -26 -13 -29 -7 -2 -9 -8 -6 -14 4 -6 0 -14 -7 -19 -10 -6 -10 -9 -2
-9 7 0 10 -6 7 -14 -3 -7 7 -23 22 -35 27 -21 27 -21 3 -21 -22 0 -22 0 -3
-16 10 -8 14 -13 8 -10 -7 3 -14 -1 -18 -9 -3 -8 -2 -15 2 -15 10 0 33 -52 26
-59 -3 -3 -9 1 -14 9 -6 9 -10 10 -10 3 0 -16 11 -22 53 -27 19 -2 44 -9 56
-15 12 -7 21 -9 21 -5 0 3 6 1 14 -5 10 -8 23 -7 51 5 48 20 131 83 127 96 -2
6 4 8 13 5 8 -4 15 -2 15 4 0 6 4 7 10 4 5 -3 20 1 32 9 13 8 43 15 68 14 24
0 46 5 48 11 5 14 42 14 42 0 0 -8 14 -10 45 -6 61 9 87 26 80 55 -6 25 9 29
30 8 10 -10 11 -16 2 -25 -13 -13 9 -16 38 -5 13 5 14 8 3 15 -10 6 -10 11 -1
20 9 9 16 9 28 -1 13 -11 20 -9 43 14 16 14 50 32 78 40 104 29 241 82 270
104 16 13 40 32 54 42 14 11 18 17 8 14 -12 -4 -18 2 -23 24 -3 17 -15 47 -26
68 -10 21 -19 48 -19 61 0 17 -7 24 -27 29 -49 10 -87 27 -110 47 -21 19 -22
19 -47 1 -14 -11 -26 -27 -26 -36 0 -29 -15 -28 -48 2 -29 26 -46 70 -22 55 6
-3 10 -2 10 3 0 6 -10 13 -22 16 -13 3 -34 15 -48 26 -19 15 -21 20 -8 20 9 0
23 -6 30 -13 7 -7 26 -10 43 -7 34 6 110 44 120 60 4 6 15 8 26 5 25 -8 27 30
2 44 -10 6 -12 11 -5 11 6 0 12 6 12 14 0 8 6 16 13 19 6 3 -2 4 -20 3 -18 0
-33 3 -35 7 -5 13 174 104 199 103 12 -1 39 -18 61 -38 58 -53 76 -60 106 -47
14 7 28 21 32 31 8 25 28 17 33 -13 1 -13 8 -27 15 -31 7 -5 6 -8 -4 -8 -23 0
28 -32 65 -40 38 -9 50 -3 59 27 4 14 12 20 22 16 10 -4 14 2 13 18 0 13 -3
18 -6 12 -7 -18 -42 -16 -50 3 -8 23 17 44 63 51 21 3 46 12 55 19 19 17 31 8
20 -15 -14 -30 -7 -46 23 -49 19 -3 26 0 21 8 -5 8 -1 11 10 8 19 -3 43 -34
34 -43 -4 -3 -18 -1 -33 5 -15 5 -25 6 -22 1 3 -5 -2 -12 -11 -15 -15 -6 -15
-8 -3 -16 21 -13 6 -12 -24 1 -20 10 -32 8 -63 -6 -25 -12 -33 -20 -23 -23 57
-17 84 -33 71 -42 -8 -5 -24 -4 -37 2 -32 15 -54 3 -54 -27 0 -22 -3 -25 -24
-19 -14 3 -41 1 -60 -6 -26 -8 -40 -8 -56 0 -12 6 -28 9 -37 6 -13 -5 -13 -9
-2 -23 20 -24 89 -53 126 -53 43 0 85 -20 79 -37 -11 -28 16 -11 35 22 19 32
33 40 65 36 17 -2 27 31 12 42 -10 6 -9 8 3 4 10 -3 36 12 67 39 28 24 55 44
61 44 7 0 14 7 18 16 3 8 26 37 52 63 25 26 61 69 79 94 29 42 31 48 16 54
-11 4 -23 -1 -34 -15 -40 -49 -122 -35 -118 20 2 22 10 33 34 44 18 9 41 15
51 14 41 -5 83 1 83 10 0 6 -7 10 -16 10 -32 0 -6 25 32 31 54 10 135 50 148
74 6 11 14 23 19 26 4 3 9 24 11 48 3 33 0 44 -15 54 -26 16 -24 29 4 22 35
-9 50 14 35 53 -13 33 -9 31 -130 47 -30 4 -38 -9 -13 -19 13 -4 14 -10 5 -26
-6 -11 -17 -20 -25 -20 -18 0 -19 12 -2 29 6 7 8 12 2 11 -5 -2 -17 -2 -25 0
-11 1 -9 4 5 10 13 6 15 9 5 9 -8 1 -27 -6 -43 -14 -19 -10 -35 -11 -55 -5
-37 13 -183 20 -176 9 3 -5 -11 -9 -30 -9 -19 0 -38 -5 -42 -11 -4 -6 -19 -9
-36 -5 -16 3 -39 1 -49 -5 -11 -6 -59 -14 -107 -19 -48 -5 -88 -14 -90 -20 -2
-5 -10 -10 -17 -10 -8 0 -11 -7 -8 -20 6 -24 33 -26 74 -4 43 22 72 15 76 -18
4 -27 2 -28 -44 -28 -27 0 -58 -7 -70 -15 -18 -13 -22 -13 -33 0 -7 8 -29 15
-49 15 -20 0 -42 4 -50 9 -16 10 -24 41 -11 41 15 0 21 -18 8 -23 -7 -3 1 -5
17 -5 17 0 24 2 16 5 -10 4 -8 9 10 19 l24 13 -35 15 c-32 13 -36 13 -42 -2
-4 -9 -7 -13 -7 -8 -1 5 -7 4 -14 -2 -7 -6 -31 -13 -53 -15 -38 -5 -41 -3 -36
15 3 11 1 23 -4 27 -5 3 -14 20 -20 38 -10 26 -9 35 2 44 8 6 14 17 14 24 0
16 -27 27 -35 15 -4 -6 1 -10 11 -10 13 0 14 -3 4 -15 -7 -8 -21 -15 -31 -15
-16 0 -23 -9 -21 -30 0 -3 4 -13 7 -23 6 -14 3 -16 -11 -10 -12 4 -15 3 -10
-6 5 -7 15 -10 23 -7 9 4 23 -3 34 -15 29 -33 23 -43 -12 -19 -16 12 -51 24
-77 27 -26 3 -51 8 -57 12 -9 7 -94 31 -109 31 -3 0 -6 -15 -6 -32 0 -18 -4
-39 -9 -47 -11 -17 -3 -43 10 -35 6 3 15 1 22 -4 13 -10 67 -26 80 -24 4 1 7
-3 7 -8 0 -6 -10 -10 -22 -11 -44 -1 127 -57 274 -89 51 -12 61 -11 95 6 33
16 35 19 16 22 -13 2 -23 10 -23 17 0 9 6 12 15 9 8 -4 15 -2 15 4 0 18 41 0
49 -22 8 -20 8 -20 20 2 7 13 11 28 8 35 -6 20 20 38 47 31 13 -3 36 -19 50
-35 14 -16 32 -29 39 -29 19 0 66 -43 69 -65 3 -20 -3 -22 -131 -40 -19 -2
-42 -12 -52 -21 -11 -10 -22 -15 -25 -11 -8 8 -64 -43 -64 -58 0 -7 -9 -20
-20 -30 -22 -20 -132 -29 -162 -13 -11 5 -18 5 -18 -1 0 -12 -55 3 -75 19 -8
7 -23 9 -34 5 -12 -3 -21 -1 -24 7 -2 7 -3 4 -1 -8 3 -18 -45 -110 -65 -124
-4 -3 -10 -13 -14 -22 -3 -10 -12 -18 -18 -18 -8 0 -7 5 2 17 12 15 12 16 -8
11 -20 -5 -22 -3 -17 18 5 21 3 24 -20 24 -23 0 -31 -9 -27 -32 1 -8 -12 -11
-59 -12 -14 -1 -31 -5 -37 -9 -9 -6 -13 -2 -13 12 0 11 -9 26 -20 34 -11 8
-17 17 -12 21 4 4 -6 4 -22 0 -28 -7 -29 -6 -23 26 6 29 5 31 -9 19 -12 -9
-15 -24 -11 -54 3 -22 3 -32 0 -22 -5 20 -23 23 -23 5 0 -9 -4 -8 -10 2 -14
21 -12 30 4 30 17 0 14 34 -5 56 -7 8 -9 18 -5 22 4 4 12 -1 17 -11 13 -22 30
-22 22 0 -5 12 -3 14 7 8 9 -5 11 -4 6 4 -4 6 -11 9 -16 6 -4 -3 -11 2 -14 11
-3 8 -10 13 -15 9 -5 -3 -12 -1 -16 5 -3 5 -17 10 -31 10 -14 0 -39 8 -57 17
-18 9 -35 17 -40 18 -4 0 -23 12 -41 28 -36 28 -67 38 -49 15 16 -21 22 -57 9
-61 -25 -9 -46 7 -58 44 -13 44 -34 54 -24 12 18 -70 18 -84 3 -101 -15 -17
-17 -21 -17 -42 0 -22 -17 -8 -30 25 -7 19 -19 36 -27 39 -10 4 -10 11 -1 31
7 16 14 21 18 14 12 -19 18 14 8 41 -8 22 -10 23 -19 8 -5 -10 -19 -23 -30
-29 -28 -14 -81 -21 -74 -9 4 6 -1 10 -9 10 -9 0 -16 5 -16 10 0 6 7 10 15 10
18 0 20 17 4 22 -8 3 -9 10 -1 23 46 89 67 145 67 180 0 22 -4 41 -10 43 -5 2
-14 11 -20 20 -12 21 -46 26 -38 6 3 -8 -1 -14 -11 -14 -9 0 -16 -7 -16 -15 0
-8 -11 -17 -25 -21 -14 -3 -25 -11 -25 -16 0 -6 -13 -7 -31 -3 -23 5 -30 4
-24 -5 6 -9 3 -9 -12 -1 -11 5 -28 10 -39 11 -10 0 -28 0 -39 1 -48 1 -88 -8
-96 -23 -9 -16 -20 -17 -91 -2 -21 4 -29 0 -39 -18 -7 -13 -12 -28 -11 -34 4
-20 -26 -38 -41 -25 -8 6 -18 7 -22 3 -5 -4 -5 -1 -1 6 4 6 2 12 -4 12 -6 0
-5 11 5 30 9 17 21 30 29 30 7 0 21 9 31 20 10 11 24 20 31 20 7 0 18 9 24 20
10 18 73 55 95 55 19 0 17 37 -3 58 -27 29 -34 93 -11 89 9 -1 19 4 23 13 3 8
12 15 21 15 20 0 55 36 56 58 0 13 2 14 6 2 6 -16 23 -30 36 -30 8 0 3 55 -8
82 -4 10 -15 15 -28 13 -16 -4 -18 -2 -9 7 15 15 16 42 2 33 -6 -4 -8 -11 -5
-16 4 -5 2 -9 -2 -9 -5 0 -13 10 -18 23 -7 14 -19 22 -35 22 -14 0 -27 2 -30
6 -3 3 -17 1 -32 -5z m-628 -277 c0 -6 -4 -7 -10 -4 -5 3 -10 11 -10 16 0 6 5
7 10 4 6 -3 10 -11 10 -16z m48 -21 c-6 -18 -28 -21 -28 -4 0 9 7 16 16 16 9
0 14 -5 12 -12z m387 -28 c-3 -5 -12 -10 -18 -10 -7 0 -6 4 3 10 19 12 23 12
15 0z m-72 -60 c3 -11 3 -20 1 -20 -2 0 -8 9 -14 20 -6 11 -7 20 -2 20 6 0 12
-9 15 -20z m2631 -33 c3 4 6 4 6 0 0 -3 -9 -15 -20 -25 -17 -16 -29 -18 -68
-11 -26 4 -52 3 -59 -3 -7 -5 -13 -5 -17 1 -8 13 1 18 49 27 40 7 67 30 58 49
-2 5 7 -2 20 -17 14 -15 28 -24 31 -21z m-504 13 c0 -5 -5 -10 -11 -10 -5 0
-7 5 -4 10 3 6 8 10 11 10 2 0 4 -4 4 -10z m370 -74 c0 -2 -7 -7 -16 -10 -8
-3 -12 -2 -9 4 6 10 25 14 25 6z m-2075 -16 c-3 -5 -1 -10 4 -10 6 0 11 -6 11
-14 0 -11 -5 -12 -25 -3 -23 11 -23 13 -8 25 20 15 26 15 18 2z m2113 -12 c7
-7 12 -15 12 -20 0 -11 -53 -36 -67 -31 -7 3 -13 0 -13 -5 0 -6 6 -13 13 -15
26 -11 -61 -6 -120 7 -34 7 -65 11 -68 8 -3 -3 -5 -1 -5 5 0 14 128 27 169 18
26 -6 32 -3 42 19 14 29 20 31 37 14z m-2183 -8 c-3 -5 -10 -10 -16 -10 -5 0
-9 5 -9 10 0 6 7 10 16 10 8 0 12 -4 9 -10z m-160 -17 c3 -10 1 -19 -4 -21 -6
-2 -11 -12 -11 -22 0 -10 -4 -21 -9 -24 -5 -4 -7 6 -5 21 3 16 6 36 7 46 2 22
13 22 22 0z m1461 -4 c3 -5 -2 -6 -11 -3 -11 5 -18 0 -22 -15 -3 -11 -9 -21
-13 -21 -11 0 -23 37 -16 49 7 10 54 2 62 -10z m555 -7 c-46 -3 -64 4 -42 17
7 5 30 3 50 -3 l36 -11 -44 -3z m-491 3 c14 -16 10 -18 -14 -9 -9 3 -16 10
-16 15 0 14 16 11 30 -6z m-2493 -19 c-1 -5 15 -13 37 -16 63 -12 76 -57 24
-84 -18 -9 -41 -22 -52 -29 -15 -9 -20 -9 -23 0 -3 10 -10 10 -25 2 -20 -11
-53 -8 -92 7 -14 5 -17 4 -12 -4 9 -15 1 -15 -27 0 -22 11 -22 12 7 23 23 10
29 19 31 48 3 55 19 68 81 66 29 -1 52 -7 51 -13z m1003 -7 c0 -5 5 -7 10 -4
6 3 10 2 10 -3 0 -8 -22 -22 -36 -22 -2 0 -4 9 -4 20 0 11 5 20 10 20 6 0 10
-5 10 -11z m-4 -96 c-1 -56 -13 -83 -36 -83 -6 0 -8 -4 -5 -10 3 -5 1 -10 -5
-10 -7 0 -10 -6 -8 -12 4 -12 -14 -38 -25 -38 -9 0 4 65 17 85 8 11 17 36 21
55 6 28 30 70 40 70 1 0 1 -26 1 -57z m-1570 -2 c-4 -5 7 -12 24 -16 16 -4 30
-11 30 -17 0 -6 -8 -7 -17 -3 -10 4 -26 10 -35 12 -19 6 -23 15 -11 26 9 10
15 8 9 -2z m374 -1 c0 -5 -2 -10 -4 -10 -3 0 -8 5 -11 10 -3 6 -1 10 4 10 6 0
11 -4 11 -10z m430 0 c-8 -5 -24 -9 -35 -9 l-20 0 20 9 c11 5 27 9 35 9 13 1
13 0 0 -9z m-490 -15 c0 -1 -12 -2 -26 -2 -17 0 -22 2 -13 7 10 7 39 3 39 -5z
m340 -5 c0 -5 -5 -10 -11 -10 -5 0 -7 5 -4 10 3 6 8 10 11 10 2 0 4 -4 4 -10z
m-550 -20 c0 -5 -9 -8 -19 -7 -15 1 -17 4 -9 14 11 13 28 9 28 -7z m625 0 c-3
-5 -11 -10 -16 -10 -6 0 -7 5 -4 10 3 6 11 10 16 10 6 0 7 -4 4 -10z m-712
-30 c-7 -28 -13 -25 -13 6 0 14 4 23 9 20 5 -3 7 -15 4 -26z m107 0 c0 -5 -2
-10 -4 -10 -3 0 -8 5 -11 10 -3 6 -1 10 4 10 6 0 11 -4 11 -10z m255 0 c3 -6
-1 -7 -9 -4 -18 7 -21 14 -7 14 6 0 13 -4 16 -10z m910 -4 c0 -11 -35 -18 -55
-10 -13 4 -13 6 0 15 18 11 55 8 55 -5z m128 -2 c26 -9 47 -19 47 -22 0 -6
-87 -7 -100 -2 -3 1 -8 2 -11 2 -4 -1 -9 8 -12 18 -6 25 12 26 76 4z m167 -3
c0 -12 -20 -25 -27 -18 -7 7 6 27 18 27 5 0 9 -4 9 -9z m-1410 -31 c5 -9 5
-22 -1 -31 -7 -12 -9 -12 -10 1 -1 8 -1 19 0 23 1 5 -3 6 -8 3 -5 -3 -14 1
-21 9 -9 11 -8 14 10 12 12 -1 25 -9 30 -17z m485 0 c38 0 51 -12 31 -29 -10
-9 -20 -9 -40 0 -28 13 -50 4 -26 -11 20 -12 9 -21 -26 -21 -41 0 -65 4 -59 9
3 3 -3 11 -13 18 -11 9 -13 13 -4 14 7 0 10 4 7 10 -3 5 4 12 17 14 43 10 73
11 76 4 2 -5 19 -8 37 -8z m545 10 c0 -5 -2 -10 -4 -10 -3 0 -8 5 -11 10 -3 6
-1 10 4 10 6 0 11 -4 11 -10z m-749 -31 c16 -1 -19 -17 -40 -18 -11 -1 -11 2
-1 14 6 8 9 20 5 27 -4 7 0 5 8 -4 8 -10 20 -18 28 -19z m879 11 c0 -5 -4 -10
-9 -10 -6 0 -13 5 -16 10 -3 6 1 10 9 10 9 0 16 -4 16 -10z m1085 0 c-3 -5
-10 -10 -16 -10 -5 0 -9 5 -9 10 0 6 7 10 16 10 8 0 12 -4 9 -10z m-2439 -11
c7 -12 -15 -31 -28 -23 -4 3 -8 12 -8 20 0 17 26 19 36 3z m1091 -11 c-3 -8
-6 -5 -6 6 -1 11 2 17 5 13 3 -3 4 -12 1 -19z m-837 -10 c0 -6 -6 -5 -15 2 -8
7 -15 14 -15 16 0 2 7 1 15 -2 8 -4 15 -11 15 -16z m34 7 c-7 -16 -24 -21 -24
-6 0 8 7 13 27 20 1 1 0 -6 -3 -14z m56 5 c0 -5 -4 -10 -9 -10 -6 0 -13 5 -16
10 -3 6 1 10 9 10 9 0 16 -4 16 -10z m500 -26 c0 -8 -4 -12 -10 -9 -5 3 -10
10 -10 16 0 5 5 9 10 9 6 0 10 -7 10 -16z m1340 7 c0 -5 -7 -11 -14 -14 -10
-4 -13 -1 -9 9 6 15 23 19 23 5z m270 -23 c0 -19 -2 -20 -10 -8 -13 19 -13 30
0 30 6 0 10 -10 10 -22z m-2525 3 c-3 -6 15 -13 40 -16 25 -4 45 -11 45 -16 0
-5 3 -8 8 -7 4 1 18 -4 30 -11 23 -12 24 -11 21 21 -3 25 0 32 11 30 8 -2 36
-4 62 -3 44 0 60 -8 64 -34 1 -5 5 -18 9 -28 6 -15 4 -17 -19 -11 -21 5 -25 3
-20 -9 4 -11 -4 -21 -25 -32 -17 -8 -34 -15 -37 -14 -4 0 -10 -5 -15 -12 -5
-9 -11 -5 -20 14 -10 21 -19 27 -43 26 -30 0 -30 -1 -8 -11 31 -15 40 -55 16
-73 -10 -7 -22 -11 -26 -9 -5 3 -8 0 -8 -7 0 -8 -3 -9 -13 0 -8 6 -17 7 -22 3
-4 -4 -6 0 -3 8 3 8 10 15 15 15 6 0 14 3 18 7 4 3 -1 5 -10 4 -10 -1 -26 -13
-36 -27 -16 -20 -18 -21 -13 -4 4 11 11 26 17 32 7 10 2 12 -22 9 -23 -2 -31
1 -31 13 0 9 8 21 19 28 10 6 21 20 23 31 4 16 1 18 -21 14 -14 -3 -34 -12
-45 -21 -10 -9 -21 -15 -25 -14 -11 5 -41 -8 -41 -18 0 -5 -10 -9 -22 -9 l-23
1 24 17 c42 31 81 77 76 90 -3 7 -1 11 4 8 4 -3 17 1 27 9 22 17 27 18 19 6z
m3348 -45 c-6 -11 -13 -12 -23 -5 -13 8 -12 12 5 25 21 16 32 4 18 -20z
m-3420 7 c-12 -32 -40 -56 -49 -42 -4 8 4 21 22 36 35 28 35 28 27 6z m-493
-33 c-13 -11 -25 -20 -27 -20 -2 0 2 9 9 20 7 11 19 20 27 20 9 0 6 -7 -9 -20z
m327 4 c-3 -3 -12 -4 -19 -1 -8 3 -5 6 6 6 11 1 17 -2 13 -5z m783 -10 c0 -2
-7 -4 -15 -4 -8 0 -15 4 -15 10 0 5 7 7 15 4 8 -4 15 -8 15 -10z m1376 1 c16
-8 40 -15 54 -16 26 0 73 -17 55 -19 -5 0 -1 -7 10 -16 17 -13 18 -16 5 -24
-11 -7 -3 -10 28 -10 23 0 54 -7 67 -16 24 -16 25 -15 25 5 0 14 5 19 14 15 8
-3 12 -12 9 -20 -4 -10 2 -17 16 -21 11 -3 18 -10 14 -16 -4 -7 0 -8 11 -4 10
4 24 7 32 7 8 0 19 11 26 25 6 13 14 22 19 20 4 -3 10 -1 14 5 8 12 45 -10 45
-27 0 -7 9 -13 20 -13 22 0 28 35 8 43 -7 3 0 6 16 6 18 1 36 -7 47 -20 12
-14 26 -20 38 -16 15 4 21 -1 26 -23 3 -16 13 -31 21 -34 9 -3 12 -1 9 4 -3 6
3 10 14 10 22 0 30 -20 9 -20 -7 0 -5 -5 5 -11 9 -5 22 -7 27 -4 6 3 10 2 10
-4 0 -5 15 -14 33 -20 19 -7 49 -23 67 -36 30 -22 31 -25 12 -25 -12 0 -22 -5
-22 -11 0 -6 -7 -9 -14 -6 -10 4 -13 1 -10 -7 5 -13 -16 -23 -66 -33 -14 -2
-33 -11 -42 -20 -10 -9 -18 -13 -18 -8 0 4 -13 -7 -30 -25 -25 -26 -30 -29
-31 -14 0 17 -1 17 -9 -1 -7 -19 -8 -18 -14 5 -9 37 -3 63 18 83 10 9 15 17
11 17 -4 0 0 9 10 20 16 18 16 20 2 26 -12 4 -15 14 -10 34 5 26 1 30 -32 44
-54 23 -64 20 -81 -19 -22 -54 -4 -66 59 -40 16 7 17 3 13 -31 -2 -22 -5 -43
-5 -47 -1 -5 -5 -5 -11 -2 -5 3 -10 -1 -10 -9 0 -9 6 -16 13 -16 9 0 8 -3 -2
-9 -8 -5 -11 -16 -7 -29 10 -30 -3 -89 -19 -89 -8 0 -13 3 -12 6 4 12 -43 81
-54 81 -7 0 -10 3 -6 6 3 4 -1 13 -9 21 -8 9 -13 22 -10 29 3 8 0 11 -8 8 -18
-7 -53 28 -48 49 2 11 -3 17 -13 17 -9 0 -13 -4 -10 -10 9 -14 -9 -12 -24 3
-10 10 -11 9 -6 -4 5 -13 0 -16 -23 -15 -34 1 -89 35 -58 35 15 1 16 4 6 16
-15 18 1 20 18 3 13 -13 15 -8 6 16 -3 9 -12 16 -19 16 -7 0 -18 7 -25 15 -11
13 -15 13 -21 3 -6 -10 -13 -10 -26 -2 -20 12 -46 7 -37 -7 3 -5 1 -9 -4 -9
-5 0 -12 11 -14 25 -4 20 -1 25 15 25 11 0 17 3 14 6 -11 11 -71 13 -89 3 -12
-7 -26 0 -55 29 -35 34 -87 112 -66 99 5 -3 15 -2 23 4 20 12 23 11 56 -6z
m-2066 -15 c-6 -11 -13 -20 -16 -20 -3 0 -2 5 1 10 3 6 -2 10 -12 10 -15 0
-16 2 -3 10 27 17 42 12 30 -10z m1280 5 c-7 -9 -15 -13 -17 -11 -7 7 7 26 19
26 6 0 6 -6 -2 -15z m250 -65 c0 -5 -7 -10 -15 -10 -8 0 -15 5 -15 10 0 6 7
10 15 10 8 0 15 -4 15 -10z m-2009 -53 c-10 -9 -11 -8 -5 6 3 10 9 15 12 12 3
-3 0 -11 -7 -18z m763 -69 c-4 -7 -14 -2 -25 13 -22 28 -24 46 -6 52 14 5 41
-49 31 -65z m-71 48 c21 -16 22 -42 2 -50 -27 -10 -135 -19 -135 -10 0 15 32
43 45 38 7 -3 23 4 34 15 24 24 30 25 54 7z m1727 -6 c0 -5 -4 -10 -10 -10 -5
0 -10 5 -10 10 0 6 5 10 10 10 6 0 10 -4 10 -10z m175 -20 c3 -5 1 -10 -4 -10
-6 0 -11 5 -11 10 0 6 2 10 4 10 3 0 8 -4 11 -10z m-2140 -16 c19 -14 17 -15
-22 -13 -24 2 -45 9 -47 16 -7 18 44 16 69 -3z m-415 -34 c-13 -9 -13 -10 0
-10 12 -1 11 -3 -3 -11 -10 -6 -25 -8 -34 -5 -13 5 -12 10 8 29 14 14 28 20
34 15 6 -6 4 -12 -5 -18z m2327 -17 c-9 -9 -19 -14 -23 -11 -10 10 6 28 24 28
15 0 15 -1 -1 -17z m-2121 -44 c3 -5 -2 -10 -10 -10 -9 -1 -22 -2 -28 -3 -20
-3 -41 16 -28 24 14 9 58 1 66 -11z m2404 -23 c0 -2 -6 -9 -14 -15 -11 -9 -16
-9 -22 0 -4 7 -3 9 4 5 6 -3 13 -2 17 4 6 10 15 14 15 6z m38 -50 c3 -12 -1
-17 -10 -14 -7 3 -15 13 -16 22 -3 12 1 17 10 14 7 -3 15 -13 16 -22z m568
-22 c-26 -18 -47 -18 -40 0 5 14 43 26 54 18 3 -2 -4 -10 -14 -18z m54 6 c0
-5 -2 -10 -4 -10 -3 0 -8 5 -11 10 -3 6 -1 10 4 10 6 0 11 -4 11 -10z m-110
-34 c0 -4 -9 -1 -19 6 -11 7 -17 16 -15 20 5 8 34 -15 34 -26z m-412 -43 c-2
-13 15 -47 30 -59 12 -8 11 -12 -2 -23 -19 -16 -50 -6 -43 13 3 7 -1 25 -8 39
-10 19 -10 27 -2 31 19 7 27 7 25 -1z m217 -15 c4 -13 9 -31 11 -40 3 -11 0
-18 -8 -18 -8 0 -15 10 -15 22 -1 13 -9 28 -18 34 -20 15 -19 24 4 24 12 0 22
-9 26 -22z m285 -3 c0 -25 -15 -24 -16 1 -1 13 2 21 7 18 5 -3 9 -11 9 -19z
m-2975 -5 c-20 -23 -29 -21 -19 4 3 9 13 16 22 16 13 0 12 -3 -3 -20z m2625 6
c0 -9 7 -12 20 -9 16 4 19 2 14 -11 -3 -9 -12 -16 -19 -16 -7 0 -15 -7 -19
-15 -3 -8 -9 -15 -15 -15 -13 0 -21 53 -9 68 14 16 28 15 28 -2z m120 -25 c0
-17 -18 -21 -24 -6 -3 9 0 15 9 15 8 0 15 -4 15 -9z m-400 -46 c0 -5 -5 -3
-10 5 -5 8 -10 20 -10 25 0 6 5 3 10 -5 5 -8 10 -19 10 -25z m326 7 c7 -4 8
-16 4 -27 -7 -19 -7 -19 -14 2 -5 15 -13 20 -24 17 -14 -5 -15 -4 -2 5 18 13
21 13 36 3z m-2618 -32 c-4 -28 -18 -29 -34 -5 -12 19 -11 21 12 23 20 1 25
-2 22 -18z m1976 -5 c11 -8 17 -17 14 -20 -3 -3 -11 1 -17 9 -7 8 -20 12 -28
9 -11 -4 -14 -2 -9 5 9 15 17 15 40 -3z m586 0 c-9 -11 -9 -15 -1 -15 7 0 9
-4 6 -10 -10 -16 -32 -11 -32 8 0 17 14 32 31 32 5 0 3 -7 -4 -15z m151 -25
c16 0 10 -20 -16 -48 l-25 -26 11 38 c6 21 8 44 5 51 -2 7 -2 16 2 20 4 4 8
-3 10 -14 2 -12 8 -21 13 -21z m-781 -10 c0 -5 -4 -10 -10 -10 -5 0 -10 5 -10
10 0 6 5 10 10 10 6 0 10 -4 10 -10z m291 -33 c-1 -12 -15 -9 -19 4 -3 6 1 10
8 8 6 -3 11 -8 11 -12z m-41 -58 c0 -5 -7 -6 -15 -3 -8 4 -15 13 -15 21 0 13
3 13 15 3 8 -7 15 -16 15 -21z m-2516 -8 c3 -5 -1 -11 -9 -15 -9 -3 -15 0 -15
9 0 16 16 20 24 6z m430 -25 c15 -13 26 -29 26 -36 0 -7 9 -11 23 -8 17 3 23
0 24 -14 1 -9 -2 -20 -8 -23 -5 -4 -9 -1 -9 4 0 6 -12 11 -26 11 -19 0 -25 4
-20 15 3 8 2 14 -2 12 -13 -4 -54 41 -47 52 9 15 10 14 39 -13z m903 8 c-3 -3
-12 -4 -19 -1 -8 3 -5 6 6 6 11 1 17 -2 13 -5z m34 -21 c13 -16 12 -17 -3 -4
-17 13 -22 21 -14 21 2 0 10 -8 17 -17z m1144 -3 c3 -5 1 -10 -4 -10 -6 0 -11
5 -11 10 0 6 2 10 4 10 3 0 8 -4 11 -10z m39 1 c3 -5 -1 -11 -9 -14 -9 -4 -12
-1 -8 9 6 16 10 17 17 5z m-414 -41 c0 -11 -4 -20 -9 -20 -5 0 -11 9 -14 20
-3 13 0 20 9 20 8 0 14 -9 14 -20z m511 -19 c15 -13 19 -26 14 -40 -3 -12 -11
-19 -16 -16 -5 4 -9 1 -9 -6 0 -15 -27 7 -42 34 -8 16 -7 23 8 34 23 16 21 17
45 -6z m-2096 -31 c3 -5 1 -10 -4 -10 -6 0 -11 5 -11 10 0 6 2 10 4 10 3 0 8
-4 11 -10z m2025 -14 c0 -3 -4 -8 -10 -11 -5 -3 -10 -1 -10 4 0 6 5 11 10 11
6 0 10 -2 10 -4z m-1410 -31 c0 -8 -4 -15 -10 -15 -5 0 -10 7 -10 15 0 8 5 15
10 15 6 0 10 -7 10 -15z m310 -9 c0 -19 -8 -27 -35 -36 -35 -12 -44 -23 -24
-35 7 -5 6 -11 -3 -18 -7 -7 -12 -11 -9 -10 6 4 31 -25 31 -36 0 -6 -7 -11
-15 -11 -16 0 -39 45 -30 59 6 11 -24 51 -39 51 -8 0 -16 9 -19 19 -4 18 0 19
58 14 51 -4 63 -2 68 11 9 23 17 20 17 -8z m-1023 -55 c-4 -15 -1 -18 12 -13
9 3 19 10 23 16 7 10 12 -16 11 -51 -1 -17 12 -16 48 3 17 8 33 13 36 10 8 -7
-59 -46 -79 -46 -9 0 -21 -8 -27 -17 -8 -15 -12 -16 -22 -5 -27 26 -62 12 -88
-37 -12 -21 -15 -22 -28 -8 -14 14 -13 18 6 46 12 17 19 35 16 41 -3 5 0 10 7
10 8 0 29 16 48 35 41 40 44 42 37 16z m1003 -51 c0 -5 -2 -10 -4 -10 -3 0 -8
5 -11 10 -3 6 -1 10 4 10 6 0 11 -4 11 -10z m74 -49 c-5 -6 -34 20 -34 30 0 5
8 1 18 -8 10 -10 17 -20 16 -22z m-617 -14 c4 -6 -2 -8 -15 -5 -26 7 -27 5 -6
-17 13 -13 14 -21 6 -40 -10 -21 -9 -23 6 -18 15 6 15 5 3 -10 -7 -9 -10 -17
-5 -17 11 0 -18 -20 -30 -20 -4 0 -5 12 -1 27 5 23 4 25 -9 14 -9 -8 -17 -11
-17 -7 -1 3 -3 11 -4 16 -1 6 -3 15 -4 20 -1 12 -31 13 -31 1 0 -5 -9 -7 -20
-4 -13 3 -22 -1 -26 -12 -5 -13 -9 -14 -15 -3 -7 10 -11 7 -15 -9 -4 -13 -11
-23 -16 -23 -6 0 -8 9 -5 20 3 11 1 23 -5 26 -5 4 0 16 12 29 19 20 43 27 132
39 3 1 9 4 13 7 8 9 44 -1 52 -14z"/>
<path d="M4690 2610 l-35 -7 37 -2 c20 0 40 4 43 9 7 11 7 11 -45 0z"/>
<path d="M2970 3039 c-8 -5 -11 -9 -6 -9 5 0 2 -8 -7 -18 -10 -10 -14 -22 -10
-25 3 -4 0 -18 -7 -32 -12 -22 -11 -27 6 -40 27 -21 42 -18 47 8 3 16 5 14 6
-9 1 -38 16 -51 74 -69 42 -13 44 -12 63 13 10 14 24 30 30 36 6 6 16 22 23
34 11 20 9 25 -11 42 -13 11 -43 27 -68 36 -25 10 -49 21 -55 24 -19 13 -71
19 -85 9z"/>
<path d="M2113 3034 c7 -7 -22 -64 -38 -76 -17 -13 -37 -9 -32 6 10 26 -14 36
-45 20 -33 -17 -29 -30 15 -49 29 -12 29 -13 9 -19 -12 -4 -22 -10 -22 -14 0
-10 60 -6 92 7 20 7 28 7 32 -2 2 -7 8 -2 11 11 8 23 20 28 30 12 9 -15 55 19
55 41 0 11 -7 19 -16 19 -8 0 -13 -4 -10 -9 4 -5 -3 -7 -14 -4 -11 3 -20 12
-20 19 0 8 -7 14 -15 14 -8 0 -15 7 -15 15 0 8 -5 15 -12 15 -6 0 -8 -3 -5 -6z
m77 -84 c0 -5 -4 -10 -10 -10 -5 0 -10 5 -10 10 0 6 5 10 10 10 6 0 10 -4 10
-10z"/>
<path d="M0 2996 c0 -31 26 -42 34 -14 6 26 0 38 -20 38 -8 0 -14 -10 -14 -24z"/>
<path d="M2901 2977 c-9 -24 -6 -37 10 -37 6 0 7 5 4 10 -3 6 1 10 9 10 21 0
21 26 1 34 -10 4 -19 -2 -24 -17z"/>
<path d="M3648 2973 c6 -2 18 -2 25 0 6 3 1 5 -13 5 -14 0 -19 -2 -12 -5z"/>
<path d="M1100 2955 c-8 -9 -9 -15 -2 -15 6 0 14 5 17 10 12 20 27 10 23 -15
-4 -17 -1 -25 8 -25 17 0 17 1 4 34 -11 29 -31 33 -50 11z"/>
<path d="M1613 2963 c-26 -9 -13 -33 17 -33 17 0 30 5 30 10 0 6 -6 10 -14 10
-8 0 -16 4 -18 9 -1 4 -9 6 -15 4z"/>
<path d="M3265 2960 c-18 -7 -16 -10 18 -24 20 -9 37 -23 37 -30 0 -8 6 -17
13 -19 7 -4 6 -6 -4 -6 -20 -1 -33 -28 -16 -35 11 -4 -18 -10 -36 -7 -5 1 -5
-13 -2 -31 7 -29 6 -31 -9 -19 -8 7 -14 16 -12 20 5 7 -15 25 -32 29 -10 2
-10 -3 -2 -18 6 -11 15 -20 21 -20 6 0 8 -4 5 -9 -3 -5 1 -14 9 -21 8 -7 13
-16 10 -20 -9 -14 23 -32 45 -25 11 3 52 7 90 7 39 0 70 4 70 8 0 4 11 11 25
14 24 6 56 46 36 46 -5 0 -3 12 5 28 7 15 14 34 14 42 0 21 -43 68 -57 63 -7
-3 -13 0 -13 5 0 6 -12 13 -27 16 -49 11 -167 14 -188 6z m85 -145 c0 -8 7
-15 15 -15 18 0 19 -12 3 -28 -19 -19 -28 -14 -28 13 0 16 -6 25 -15 25 -8 0
-15 5 -15 10 0 6 9 10 20 10 11 0 20 -7 20 -15z m-50 -54 c0 -5 -7 -11 -14
-14 -10 -4 -13 -1 -9 9 6 15 23 19 23 5z"/>
<path d="M520 2940 c0 -5 5 -10 10 -10 6 0 10 5 10 10 0 6 -4 10 -10 10 -5 0
-10 -4 -10 -10z"/>
<path d="M1872 2934 c-11 -12 -8 -14 18 -14 34 0 38 5 13 19 -13 6 -22 5 -31
-5z"/>
<path d="M162 2923 c-18 -7 -4 -23 21 -23 20 -1 21 -2 5 -14 -26 -19 -22 -27
6 -14 33 15 55 5 52 -25 -2 -18 2 -23 16 -22 11 1 24 8 29 16 6 10 9 10 9 2 0
-7 4 -13 9 -13 6 0 9 9 8 19 0 11 -5 17 -9 15 -4 -3 -8 -1 -8 4 0 5 -17 21
-38 36 -36 24 -70 31 -100 19z"/>
<path d="M1947 2924 c-4 -4 -4 -11 -1 -15 8 -14 31 -10 38 6 5 15 -24 22 -37
9z"/>
<path d="M2210 2920 c0 -5 5 -10 10 -10 6 0 10 5 10 10 0 6 -4 10 -10 10 -5 0
-10 -4 -10 -10z"/>
<path d="M1140 2879 c0 -5 5 -7 10 -4 6 3 10 8 10 11 0 2 -4 4 -10 4 -5 0 -10
-5 -10 -11z"/>
<path d="M1501 2877 c-14 -14 -14 -27 -1 -27 6 0 10 7 10 16 0 13 3 14 14 5
13 -11 46 -6 46 8 0 11 -57 10 -69 -2z"/>
<path d="M38 2873 c7 -3 16 -2 19 1 4 3 -2 6 -13 5 -11 0 -14 -3 -6 -6z"/>
<path d="M1094 2845 c-3 -8 -4 -20 -2 -27 3 -7 7 -1 10 15 6 29 1 36 -8 12z"/>
<path d="M2102 2849 c-27 -10 -45 -51 -27 -61 18 -11 68 6 71 24 4 29 -18 47
-44 37z"/>
<path d="M2533 2843 c-26 -10 -13 -33 18 -33 24 0 30 4 27 17 -3 18 -24 26
-45 16z"/>
<path d="M1977 2829 c7 -7 15 -10 18 -7 3 3 -2 9 -12 12 -14 6 -15 5 -6 -5z"/>
<path d="M1 2711 c1 -58 6 -111 11 -118 6 -7 5 -19 -2 -32 -6 -12 -8 -21 -4
-21 9 0 77 51 86 64 9 13 48 18 48 6 0 -6 -6 -10 -14 -10 -7 0 -20 -8 -27 -17
-13 -16 -12 -17 4 -4 9 7 17 9 17 4 0 -13 -56 -53 -75 -53 -13 0 -13 -3 -3
-20 15 -23 33 -27 24 -5 -4 11 3 10 31 -5 20 -10 40 -17 45 -14 10 7 10 -7 0
-24 -6 -9 -13 -7 -30 8 -27 25 -35 25 -27 1 5 -17 2 -19 -22 -17 -15 1 -27 7
-26 14 2 6 -6 16 -17 22 -18 10 -20 8 -20 -29 l0 -39 40 5 c23 3 40 2 39 -3
-3 -19 1 -34 11 -34 6 0 10 11 10 24 0 27 18 45 29 28 11 -17 28 12 27 46 -1
18 3 32 7 32 5 0 5 5 2 10 -4 6 -11 8 -16 5 -5 -4 -9 0 -9 7 0 8 15 14 40 15
47 1 49 -5 15 -37 -33 -31 -33 -60 0 -60 32 0 105 -45 105 -65 0 -7 -9 -20
-21 -28 l-21 -15 21 -7 c14 -4 21 -15 21 -32 0 -19 -4 -24 -16 -19 -9 3 -24 6
-34 6 -10 0 -26 7 -35 16 -9 9 -18 14 -21 11 -3 -2 2 -12 11 -21 15 -15 15
-16 -4 -16 -23 0 -41 -22 -23 -28 7 -2 12 -10 12 -17 0 -15 22 -25 55 -25 13
0 27 -4 30 -10 3 -5 22 -10 42 -10 20 0 33 3 30 7 -4 3 -2 12 3 18 11 14 3 45
-11 45 -18 0 16 39 39 45 32 8 82 -3 79 -18 -1 -8 16 -13 48 -15 47 -3 49 -2
30 12 l-20 15 20 2 c11 1 25 1 31 0 6 -1 10 13 9 31 -1 29 -5 34 -36 39 -19 4
-28 7 -21 8 8 0 11 8 8 19 -7 21 2 35 32 51 12 6 22 19 22 27 0 10 6 14 14 11
9 -4 21 5 31 19 15 24 17 24 29 8 12 -16 13 -15 18 8 4 21 2 24 -15 20 -18 -5
-18 -4 -3 27 16 30 16 31 -4 31 -12 0 -19 4 -16 9 14 22 -24 17 -45 -5 -20
-21 -21 -27 -9 -35 13 -9 12 -10 -2 -5 -10 3 -24 -2 -33 -10 -11 -11 -26 -14
-48 -10 -25 5 -38 1 -55 -14 -12 -12 -22 -25 -22 -30 0 -17 -48 -11 -56 8 -4
9 -8 42 -8 72 -1 53 -2 55 -28 54 -15 -1 -25 3 -22 7 8 14 -23 10 -38 -4 -8
-8 -22 -10 -38 -6 -14 4 -19 7 -12 8 7 1 11 5 8 10 -4 5 3 7 14 4 11 -3 20 0
20 6 0 6 7 11 15 11 9 0 28 13 44 29 15 15 34 31 42 35 8 3 3 4 -9 2 -35 -7
-55 3 -41 20 8 10 5 14 -18 19 -15 3 -40 9 -55 14 -15 5 -29 6 -33 3 -11 -11
-48 -12 -61 -1 -11 9 -15 7 -20 -5 -3 -9 -11 -13 -16 -10 -6 4 -5 10 3 15 10
6 5 9 -16 9 -16 1 -45 3 -63 5 l-33 3 2 -107z m269 -126 c0 -1 -6 -7 -13 -13
-10 -8 -13 -6 -13 7 0 11 6 17 13 14 7 -3 13 -6 13 -8z m310 -29 c0 -11 -19
-15 -25 -6 -3 5 1 10 9 10 9 0 16 -2 16 -4z m-60 -39 c0 -16 -37 -19 -43 -3
-3 7 5 13 19 14 14 1 24 -4 24 -11z m-167 -72 c-3 -9 -8 -14 -10 -11 -3 3 -2
9 2 15 9 16 15 13 8 -4z m110 -51 c10 -13 28 -24 40 -24 19 0 20 -1 6 -16 -16
-16 -69 -11 -69 7 0 5 -7 9 -15 9 -8 0 -15 6 -15 14 0 8 -7 17 -16 20 -8 3
-12 11 -9 17 11 17 58 1 78 -27z"/>
<path d="M1508 2803 c-10 -2 -18 -8 -18 -13 0 -12 33 -5 38 8 2 7 2 11 0 11
-1 -1 -11 -3 -20 -6z"/>
<path d="M383 2793 c-27 -5 -30 -21 -7 -30 9 -3 25 3 37 16 22 22 18 23 -30
14z"/>
<path d="M4635 2790 c-6 -10 -4 -11 43 -15 15 -1 36 -5 47 -9 11 -5 7 1 -10
13 -32 22 -70 27 -80 11z"/>
<path d="M2245 2760 c-3 -5 -1 -10 4 -10 6 0 11 5 11 10 0 6 -2 10 -4 10 -3 0
-8 -4 -11 -10z"/>
<path d="M1957 2753 c-3 -5 -2 -15 2 -22 7 -10 10 -10 16 -1 4 6 3 16 -3 22
-5 5 -12 6 -15 1z"/>
<path d="M3576 2731 c-26 -10 -28 -49 -3 -57 13 -4 23 -1 29 10 5 9 14 13 21
9 6 -4 23 -8 36 -9 20 -2 22 -1 11 6 -11 7 -11 10 -2 10 7 0 10 5 7 10 -5 8
-11 7 -21 -1 -12 -9 -13 -9 -9 3 4 10 -2 17 -17 22 -27 7 -27 7 -52 -3z"/>
<path d="M3624 2659 c-3 -6 -1 -16 5 -22 8 -8 11 -5 11 11 0 24 -5 28 -16 11z"/>
<path d="M697 2633 c-4 -3 -7 -11 -7 -17 0 -6 5 -5 12 2 6 6 9 14 7 17 -3 3
-9 2 -12 -2z"/>
<path d="M721 2606 c-10 -12 -8 -13 8 -9 12 3 21 9 21 14 0 14 -16 11 -29 -5z"/>
<path d="M1875 2610 c-3 -6 1 -7 9 -4 18 7 21 14 7 14 -6 0 -13 -4 -16 -10z"/>
<path d="M694 2563 c10 -11 37 -12 30 -2 -3 5 -12 9 -21 9 -9 0 -13 -3 -9 -7z"/>
<path d="M958 2562 c-20 -4 -23 -17 -7 -28 12 -7 33 10 28 23 -2 5 -12 7 -21
5z"/>
<path d="M3973 2543 c15 -2 37 -2 50 0 12 2 0 4 -28 4 -27 0 -38 -2 -22 -4z"/>
<path d="M990 2530 c-13 -8 -12 -10 3 -10 9 0 17 5 17 10 0 12 -1 12 -20 0z"/>
<path d="M692 2514 c-7 -8 -8 -14 -3 -14 10 0 25 19 20 25 -2 1 -10 -3 -17
-11z"/>
<path d="M3290 2510 c0 -3 -10 -6 -22 -7 -20 -2 -37 -18 -38 -35 0 -4 7 -5 15
-2 9 4 18 -1 22 -12 4 -10 2 -19 -4 -21 -13 -5 -5 -43 8 -43 5 0 26 -15 46
-33 31 -27 99 -63 104 -54 1 1 3 15 5 31 2 19 15 39 34 54 16 13 28 28 25 33
-4 5 0 6 8 3 8 -3 18 -1 21 4 3 5 -11 9 -30 10 -45 2 -58 10 -45 26 17 20 -57
56 -108 53 -22 -1 -41 -4 -41 -7z m48 -146 c7 -14 8 -23 2 -19 -15 9 -32 45
-22 45 5 0 14 -12 20 -26z"/>
<path d="M4070 2490 c-8 -5 -10 -10 -5 -10 6 0 17 5 25 10 8 5 11 10 5 10 -5
0 -17 -5 -25 -10z"/>
<path d="M2929 2434 c-12 -14 -11 -16 5 -13 11 2 21 10 24 17 5 17 -13 15 -29
-4z"/>
<path d="M268 2383 c7 -3 16 -2 19 1 4 3 -2 6 -13 5 -11 0 -14 -3 -6 -6z"/>
<path d="M1768 2323 c3 -25 8 -33 19 -29 8 3 11 1 8 -4 -3 -6 -1 -10 4 -10 14
0 14 17 2 25 -6 3 -8 14 -6 24 2 12 -3 21 -14 24 -14 3 -16 -2 -13 -30z"/>
<path d="M4598 2353 c7 -3 16 -2 19 1 4 3 -2 6 -13 5 -11 0 -14 -3 -6 -6z"/>
<path d="M112 2310 c-18 -29 -15 -52 6 -48 11 2 18 14 20 36 4 36 -7 42 -26
12z"/>
<path d="M4627 2308 c-8 -30 -1 -35 23 -13 25 23 26 35 1 35 -11 0 -21 -9 -24
-22z"/>
<path d="M4923 2308 c1 -27 14 -38 42 -38 19 1 18 2 -4 21 -30 25 -24 33 12
14 15 -8 27 -9 27 -4 0 10 -42 29 -65 29 -8 0 -13 -9 -12 -22z"/>
<path d="M2875 2290 c-3 -5 -1 -10 4 -10 6 0 11 5 11 10 0 6 -2 10 -4 10 -3 0
-8 -4 -11 -10z"/>
<path d="M1769 2273 c-1 -15 -7 -38 -15 -58 -6 -17 -3 -16 18 5 25 26 30 51
10 58 -7 2 -12 0 -13 -5z"/>
<path d="M55 2260 c-3 -6 1 -7 9 -4 18 7 21 14 7 14 -6 0 -13 -4 -16 -10z"/>
<path d="M0 2236 c0 -19 4 -24 15 -19 18 6 16 34 -2 41 -8 2 -13 -6 -13 -22z"/>
<path d="M3306 2231 c-3 -5 3 -11 15 -14 16 -4 18 -3 8 9 -13 16 -16 17 -23 5z"/>
<path d="M2255 2160 c-3 -5 -1 -10 4 -10 6 0 11 5 11 10 0 6 -2 10 -4 10 -3 0
-8 -4 -11 -10z"/>
<path d="M4180 2140 c0 -6 7 -10 15 -10 8 0 15 2 15 4 0 2 -7 6 -15 10 -8 3
-15 1 -15 -4z"/>
<path d="M1718 2093 c7 -3 16 -2 19 1 4 3 -2 6 -13 5 -11 0 -14 -3 -6 -6z"/>
<path d="M3675 2069 c-4 -6 1 -16 11 -23 11 -8 14 -18 9 -27 -5 -8 1 -5 13 5
12 11 22 14 22 8 0 -7 15 -12 35 -12 32 0 35 2 25 20 -7 12 -16 17 -27 13 -10
-4 -14 -2 -10 4 4 6 -3 13 -16 17 -33 9 -55 7 -62 -5z"/>
<path d="M1185 1980 c3 -5 8 -10 11 -10 2 0 4 5 4 10 0 6 -5 10 -11 10 -5 0
-7 -4 -4 -10z"/>
<path d="M900 1959 c0 -5 5 -7 10 -4 6 3 10 8 10 11 0 2 -4 4 -10 4 -5 0 -10
-5 -10 -11z"/>
<path d="M3612 1944 c-12 -13 -10 -14 10 -9 26 7 51 -14 62 -52 7 -23 26 -32
26 -13 0 6 5 10 12 10 6 0 8 -3 4 -7 -7 -7 100 -54 118 -52 21 3 77 -23 86
-41 5 -10 19 -20 30 -23 11 -3 17 -1 14 4 -3 6 4 7 18 4 16 -4 29 -1 37 9 7 9
35 19 62 22 27 4 49 11 49 16 0 6 -12 8 -27 5 -35 -7 -81 15 -118 53 -16 17
-39 30 -52 30 -13 0 -23 4 -23 9 0 10 -105 26 -162 25 -27 -1 -38 3 -38 14 0
13 -2 13 -17 -1 -16 -13 -21 -14 -43 -2 -31 18 -32 18 -48 -1z"/>
<path d="M3808 1948 c5 -5 16 -8 23 -6 8 3 3 7 -10 11 -17 4 -21 3 -13 -5z"/>
<path d="M1148 1913 c-9 -2 -21 -16 -26 -31 -6 -15 -31 -48 -56 -74 -42 -43
-62 -79 -36 -63 6 4 22 0 35 -9 28 -18 39 -20 30 -6 -3 6 4 10 16 10 12 0 42
11 66 25 40 24 43 29 43 68 0 23 3 52 6 64 5 18 2 21 -28 20 -18 0 -41 -2 -50
-4z m31 -83 c-17 -25 -79 -66 -79 -52 0 9 77 72 88 72 3 0 -2 -9 -9 -20z m-89
-44 c0 -3 -4 -8 -10 -11 -5 -3 -10 -1 -10 4 0 6 5 11 10 11 6 0 10 -2 10 -4z"/>
<path d="M1850 1895 c0 -15 -3 -17 -9 -7 -12 20 -21 -7 -11 -33 9 -25 87 -88
99 -81 4 3 16 -3 26 -14 22 -25 32 -25 39 -2 4 11 17 25 31 32 13 7 23 18 22
24 -1 5 15 15 35 20 41 10 60 36 27 36 -11 0 -22 7 -25 15 -5 11 -10 12 -26 4
-16 -9 -19 -8 -13 2 6 9 3 10 -11 5 -43 -18 -57 -19 -69 -2 -9 11 -29 17 -64
19 -45 2 -51 0 -51 -18z m40 1 c0 -11 -19 -15 -25 -6 -3 5 1 10 9 10 9 0 16
-2 16 -4z m90 -45 c0 -5 -7 -14 -15 -21 -16 -14 -18 -10 -9 14 6 17 24 22 24
7z m-70 -11 c0 -5 -5 -10 -11 -10 -5 0 -7 5 -4 10 3 6 8 10 11 10 2 0 4 -4 4
-10z"/>
<path d="M2058 1788 c5 -34 9 -33 15 3 3 16 0 26 -7 26 -8 0 -10 -11 -8 -29z"/>
<path d="M156 1795 c7 -17 20 -20 28 -6 3 5 -1 12 -10 15 -22 9 -24 8 -18 -9z"/>
<path d="M3760 1800 c0 -5 5 -10 11 -10 5 0 7 5 4 10 -3 6 -8 10 -11 10 -2 0
-4 -4 -4 -10z"/>
<path d="M0 1740 c0 -35 3 -40 23 -40 12 0 30 6 39 14 14 10 15 16 5 27 -7 7
-2 5 11 -5 12 -11 25 -16 29 -13 11 12 31 -13 26 -32 -6 -25 10 -33 32 -17 17
12 17 14 -1 45 -11 18 -30 34 -44 37 -14 3 -41 9 -61 14 -56 15 -59 13 -59
-30z"/>
<path d="M1195 1754 c-16 -13 -34 -24 -38 -24 -5 0 -22 -9 -38 -21 -16 -11
-33 -18 -39 -14 -5 3 -18 1 -28 -4 -10 -5 -42 -11 -70 -12 l-51 -3 6 -30 c3
-17 10 -37 16 -44 7 -9 5 -11 -9 -5 -14 5 -12 0 8 -22 15 -16 25 -32 22 -37
-11 -17 39 -86 73 -102 32 -15 38 -15 59 -1 33 22 51 19 58 -10 10 -38 30 -31
22 8 -10 48 -11 69 -2 97 6 20 5 22 -4 10 -9 -12 -10 -10 -4 10 11 32 10 69 0
99 -6 18 -5 22 4 16 9 -5 11 -4 6 3 -4 6 5 29 20 51 33 50 28 67 -11 35z
m-178 -131 c4 -9 1 -19 -5 -21 -7 -2 -12 -16 -13 -30 0 -15 -3 -21 -6 -14 -2
6 -11 12 -19 12 -8 0 -14 5 -14 10 0 6 7 10 15 10 8 0 14 3 14 8 -6 38 16 58
28 25z m24 -26 c-10 -9 -11 -8 -5 6 3 10 9 15 12 12 3 -3 0 -11 -7 -18z"/>
<path d="M3832 1755 c-1 -13 3 -27 8 -30 6 -4 8 -10 6 -14 -3 -4 4 -18 15 -29
11 -12 15 -22 9 -22 -5 0 -10 -8 -10 -17 0 -16 1 -16 16 -1 12 12 13 20 5 35
-9 18 -7 20 13 16 13 -3 28 2 35 11 12 14 11 19 -4 36 -10 11 -27 20 -37 20
-11 0 -27 4 -37 9 -13 8 -17 5 -19 -14z"/>
<path d="M247 1734 c-3 -3 -3 -12 0 -20 3 -9 -1 -14 -12 -14 -11 0 -15 5 -11
15 7 19 -8 20 -23 1 -9 -10 -8 -15 4 -19 8 -4 12 -13 9 -20 -3 -8 2 -17 10
-20 10 -4 16 -1 16 7 0 18 27 28 33 13 2 -7 8 -9 12 -4 5 4 3 13 -3 19 -7 7
-12 20 -12 30 0 18 -11 24 -23 12z"/>
<path d="M2110 1721 c0 -20 27 -48 36 -38 9 9 -6 45 -21 51 -10 3 -15 -1 -15
-13z"/>
<path d="M485 1700 c-3 -5 -1 -10 4 -10 6 0 11 5 11 10 0 6 -2 10 -4 10 -3 0
-8 -4 -11 -10z"/>
<path d="M180 1670 c-22 -22 -26 -40 -10 -40 9 0 11 7 9 26 0 3 8 12 18 20 10
7 15 14 11 14 -5 0 -17 -9 -28 -20z"/>
<path d="M2195 1680 c3 -5 8 -10 11 -10 2 0 4 5 4 10 0 6 -5 10 -11 10 -5 0
-7 -4 -4 -10z"/>
<path d="M2080 1666 c0 -9 4 -16 9 -16 5 0 18 -3 28 -6 13 -4 14 -3 5 4 -8 5
-13 13 -12 18 0 5 -6 10 -14 12 -9 2 -16 -3 -16 -12z"/>
<path d="M2518 1653 c7 -3 16 -2 19 1 4 3 -2 6 -13 5 -11 0 -14 -3 -6 -6z"/>
<path d="M1788 1644 c-4 -3 -4 -12 -1 -20 3 -8 0 -14 -7 -14 -6 0 -9 -4 -6 -9
3 -5 15 -7 26 -4 17 4 20 0 20 -24 0 -16 -6 -35 -12 -41 -10 -10 -8 -14 10
-18 12 -4 19 -10 16 -15 -10 -17 51 -5 74 15 29 26 30 51 1 36 -27 -15 -34 -7
-19 21 11 19 10 24 -5 35 -10 8 -22 11 -26 8 -9 -5 -50 14 -60 28 -3 4 -8 6
-11 2z"/>
<path d="M2105 1600 c3 -5 13 -10 22 -10 9 0 13 -6 10 -15 -4 -8 -2 -17 3 -20
6 -4 10 0 10 9 0 28 -12 46 -32 46 -10 0 -16 -4 -13 -10z"/>
<path d="M2550 1589 c0 -5 -4 -7 -10 -4 -5 3 -10 -1 -10 -9 0 -9 -7 -16 -15
-16 -10 0 -7 -7 9 -25 13 -14 25 -25 27 -25 2 0 5 20 7 45 1 25 0 45 -3 45 -3
0 -5 -5 -5 -11z"/>
<path d="M908 1547 c-3 -19 -2 -25 4 -19 6 6 8 18 6 28 -3 14 -5 12 -10 -9z"/>
<path d="M922 1505 c-11 -23 -10 -24 7 -13 11 6 17 18 14 25 -7 18 -8 17 -21
-12z"/>
<path d="M1411 1494 c0 -11 3 -14 6 -6 3 7 2 16 -1 19 -3 4 -6 -2 -5 -13z"/>
<path d="M4035 1400 c-3 -5 1 -10 10 -10 9 0 13 5 10 10 -3 6 -8 10 -10 10 -2
0 -7 -4 -10 -10z"/>
<path d="M4335 1399 c-4 -6 -5 -12 -2 -15 2 -3 7 2 10 11 7 17 1 20 -8 4z"/>
<path d="M1330 1389 c0 -5 5 -7 10 -4 6 3 10 8 10 11 0 2 -4 4 -10 4 -5 0 -10
-5 -10 -11z"/>
<path d="M1200 1381 c0 -5 5 -13 10 -16 6 -3 10 -2 10 4 0 5 -4 13 -10 16 -5
3 -10 2 -10 -4z"/>
<path d="M2276 1252 c-3 -5 1 -9 9 -9 8 0 12 4 9 9 -3 4 -7 8 -9 8 -2 0 -6 -4
-9 -8z"/>
<path d="M2316 1242 c-9 -15 12 -34 40 -35 16 -1 32 -6 37 -12 8 -11 39 23 32
35 -3 4 -25 7 -49 6 -24 -1 -42 2 -40 6 3 5 1 8 -5 8 -5 0 -12 -4 -15 -8z"/>
<path d="M2110 1175 c0 -9 5 -15 11 -13 6 2 11 8 11 13 0 5 -5 11 -11 13 -6 2
-11 -4 -11 -13z"/>
<path d="M0 1000 c0 -44 16 -52 44 -24 23 22 20 31 -14 49 l-30 16 0 -41z"/>
<path d="M3195 890 c-3 -6 1 -7 9 -4 18 7 21 14 7 14 -6 0 -13 -4 -16 -10z"/>
</g>
</svg>
