<svg width="16" height="16" viewBox="0 0 16 16" fill="none" xmlns="http://www.w3.org/2000/svg">
<path fill-rule="evenodd" clip-rule="evenodd" d="M6.58586 8.00008L3.64652 5.06074C3.45126 4.86547 3.45126 4.54889 3.64652 4.35363L4.35363 3.64652C4.54889 3.45126 4.86547 3.45126 5.06074 3.64652L8.00008 6.58586L10.9394 3.64652C11.1347 3.45126 11.4513 3.45126 11.6465 3.64652L12.3536 4.35363C12.5489 4.54889 12.5489 4.86547 12.3536 5.06074L9.41429 8.00008L12.3536 10.9394C12.5489 11.1347 12.5489 11.4513 12.3536 11.6465L11.6465 12.3536C11.4513 12.5489 11.1347 12.5489 10.9394 12.3536L8.00008 9.41429L5.06074 12.3536C4.86547 12.5489 4.54889 12.5489 4.35363 12.3536L3.64652 11.6465C3.45126 11.4513 3.45126 11.1347 3.64652 10.9394L6.58586 8.00008Z" fill="#161B23"/>
</svg>
